# MagicaVoxel @ Ephtracy

# group
o 

# material
mtllib cactus2.mtl
usemtl palette

# normals
vn -1 0 0
vn 1 0 0
vn 0 0 1
vn 0 0 -1
vn 0 -1 0
vn 0 1 0

# texcoords
vt 0.337891 0.5
vt 0.505859 0.5
vt 0.962891 0.5
vt 0.978516 0.5
vt 0.982422 0.5
vt 0.986328 0.5

# verts
v -0.6 2.1 0
v -0.6 2.1 -0.1
v -0.6 2.2 0
v -0.6 2.2 -0.1
v -0.6 2.3 0
v -0.6 2.3 -0.1
v -0.6 2.8 0
v -0.6 2.8 -0.1
v -0.5 2 0
v -0.5 2 -0.1
v -0.5 2.1 0.1
v -0.5 2.1 0
v -0.5 2.1 -0.1
v -0.5 2.1 -0.2
v -0.5 2.2 0
v -0.5 2.2 -0.1
v -0.5 2.3 0.1
v -0.5 2.3 0
v -0.5 2.3 -0.1
v -0.5 2.3 -0.2
v -0.2 0.9 0
v -0.2 0.9 -0.1
v -0.2 1.9 0
v -0.2 1.9 -0.1
v -0.2 2 0
v -0.2 2 -0.1
v -0.2 2.3 0
v -0.2 2.3 -0.1
v -0.2 2.4 0
v -0.2 2.4 -0.1
v -0.2 3.1 0
v -0.2 3.1 -0.1
v -0.1 0.9 0.1
v -0.1 0.9 0
v -0.1 0.9 -0.1
v -0.1 0.9 -0.2
v -0.1 1.9 0
v -0.1 1.9 -0.1
v -0.1 2 0
v -0.1 2 -0.1
v -0.1 2.1 0.1
v -0.1 2.1 0
v -0.1 2.1 -0.1
v -0.1 2.1 -0.2
v -0.1 2.2 0.1
v -0.1 2.2 0
v -0.1 2.2 -0.1
v -0.1 2.2 -0.2
v -0.1 2.3 0
v -0.1 2.3 -0.1
v -0.1 2.4 0
v -0.1 2.4 -0.1
v -0.1 2.7 0.1
v -0.1 2.7 0
v -0.1 2.7 -0.1
v -0.1 2.7 -0.2
v -0.1 2.8 0.1
v -0.1 2.8 0
v -0.1 2.8 -0.1
v -0.1 2.8 -0.2
v -0.1 3.1 0.1
v -0.1 3.1 0
v -0.1 3.1 -0.1
v -0.1 3.1 -0.2
v 0.4 1.7 0.1
v 0.4 1.7 0
v 0.4 1.7 -0.1
v 0.4 1.7 -0.2
v 0.4 1.8 0.1
v 0.4 1.8 0
v 0.4 1.8 -0.1
v 0.4 1.8 -0.2
v 0.4 2 0
v 0.4 2 -0.1
v -0.4 2.2 0.1
v -0.4 2.2 0
v -0.4 2.2 -0.1
v -0.4 2.2 -0.2
v -0.4 2.3 0.1
v -0.4 2.3 0
v -0.4 2.3 -0.1
v -0.4 2.3 -0.2
v -0.4 2.8 0
v -0.4 2.8 -0.1
v 0.1 0.9 0.1
v 0.1 0.9 0
v 0.1 0.9 -0.1
v 0.1 0.9 -0.2
v 0.1 1.1 0.1
v 0.1 1.1 0
v 0.1 1.1 -0.1
v 0.1 1.1 -0.2
v 0.1 1.2 0.1
v 0.1 1.2 0
v 0.1 1.2 -0.1
v 0.1 1.2 -0.2
v 0.1 1.6 0.1
v 0.1 1.6 0
v 0.1 1.6 -0.1
v 0.1 1.6 -0.2
v 0.1 1.7 0.1
v 0.1 1.7 0
v 0.1 1.7 -0.1
v 0.1 1.7 -0.2
v 0.1 2.2 0
v 0.1 2.2 -0.1
v 0.1 2.3 0
v 0.1 2.3 -0.1
v 0.1 2.9 0.1
v 0.1 2.9 0
v 0.1 2.9 -0.1
v 0.1 2.9 -0.2
v 0.1 3 0.1
v 0.1 3 0
v 0.1 3 -0.1
v 0.1 3 -0.2
v 0.1 3.1 0.1
v 0.1 3.1 0
v 0.1 3.1 -0.1
v 0.1 3.1 -0.2
v 0.2 0.9 0
v 0.2 0.9 -0.1
v 0.2 1.5 0
v 0.2 1.5 -0.1
v 0.2 1.8 0
v 0.2 1.8 -0.1
v 0.2 2.2 0
v 0.2 2.2 -0.1
v 0.2 2.3 0
v 0.2 2.3 -0.1
v 0.2 3.1 0
v 0.2 3.1 -0.1
v 0.5 1.5 0
v 0.5 1.5 -0.1
v 0.5 1.6 0.1
v 0.5 1.6 0
v 0.5 1.6 -0.1
v 0.5 1.6 -0.2
v 0.5 1.7 0.1
v 0.5 1.7 0
v 0.5 1.7 -0.1
v 0.5 1.7 -0.2
v 0.5 1.8 0.1
v 0.5 1.8 0
v 0.5 1.8 -0.1
v 0.5 1.8 -0.2
v 0.6 1.6 0
v 0.6 1.6 -0.1
v 0.6 2 0
v 0.6 2 -0.1
v -0.5 2.1 0.1
v -0.5 2.3 0.1
v -0.4 2.1 0.1
v -0.4 2.2 0.1
v -0.4 2.3 0.1
v -0.2 2.1 0.1
v -0.2 2.2 0.1
v -0.1 0.9 0.1
v -0.1 2.1 0.1
v -0.1 2.2 0.1
v -0.1 2.7 0.1
v -0.1 2.8 0.1
v -0.1 3.1 0.1
v -5.96046e-08 1.1 0.1
v -5.96046e-08 1.2 0.1
v -5.96046e-08 2.7 0.1
v -5.96046e-08 2.8 0.1
v -5.96046e-08 2.9 0.1
v -5.96046e-08 3 0.1
v 0.1 0.9 0.1
v 0.1 1.1 0.1
v 0.1 1.2 0.1
v 0.1 1.6 0.1
v 0.1 1.7 0.1
v 0.1 2.9 0.1
v 0.1 3 0.1
v 0.1 3.1 0.1
v 0.2 1.6 0.1
v 0.2 1.7 0.1
v 0.4 1.6 0.1
v 0.4 1.7 0.1
v 0.4 1.8 0.1
v 0.5 1.6 0.1
v 0.5 1.7 0.1
v 0.5 1.8 0.1
v -0.6 2.1 0
v -0.6 2.2 0
v -0.6 2.3 0
v -0.6 2.8 0
v -0.5 2 0
v -0.5 2.1 0
v -0.5 2.2 0
v -0.5 2.3 0
v -0.5 2.8 0
v -0.4 2 0
v -0.4 2.1 0
v -0.4 2.2 0
v -0.4 2.3 0
v -0.4 2.8 0
v -0.2 0.9 0
v -0.2 1.9 0
v -0.2 2 0
v -0.2 2.1 0
v -0.2 2.2 0
v -0.2 2.3 0
v -0.2 2.4 0
v -0.2 3.1 0
v -0.1 0.9 0
v -0.1 1.9 0
v -0.1 2 0
v -0.1 2.1 0
v -0.1 2.2 0
v -0.1 2.3 0
v -0.1 2.4 0
v -0.1 2.7 0
v -0.1 2.8 0
v -0.1 3.1 0
v 0.1 0.9 0
v 0.1 1.1 0
v 0.1 1.2 0
v 0.1 1.6 0
v 0.1 1.7 0
v 0.1 2.2 0
v 0.1 2.3 0
v 0.1 2.9 0
v 0.1 3 0
v 0.1 3.1 0
v 0.2 0.9 0
v 0.2 1.5 0
v 0.2 1.6 0
v 0.2 1.7 0
v 0.2 1.8 0
v 0.2 2.2 0
v 0.2 2.3 0
v 0.2 3.1 0
v 0.3 1.7 0
v 0.3 1.8 0
v 0.4 1.5 0
v 0.4 1.6 0
v 0.4 1.7 0
v 0.4 1.8 0
v 0.4 2 0
v 0.5 1.5 0
v 0.5 1.6 0
v 0.5 1.7 0
v 0.5 1.8 0
v 0.5 2 0
v 0.6 1.6 0
v 0.6 2 0
v -0.6 2.1 -0.1
v -0.6 2.2 -0.1
v -0.6 2.3 -0.1
v -0.6 2.8 -0.1
v -0.5 2 -0.1
v -0.5 2.1 -0.1
v -0.5 2.2 -0.1
v -0.5 2.3 -0.1
v -0.5 2.8 -0.1
v -0.4 2 -0.1
v -0.4 2.1 -0.1
v -0.4 2.2 -0.1
v -0.4 2.3 -0.1
v -0.4 2.8 -0.1
v -0.2 0.9 -0.1
v -0.2 1.9 -0.1
v -0.2 2 -0.1
v -0.2 2.1 -0.1
v -0.2 2.2 -0.1
v -0.2 2.3 -0.1
v -0.2 2.4 -0.1
v -0.2 3.1 -0.1
v -0.1 0.9 -0.1
v -0.1 1.9 -0.1
v -0.1 2 -0.1
v -0.1 2.1 -0.1
v -0.1 2.2 -0.1
v -0.1 2.3 -0.1
v -0.1 2.4 -0.1
v -0.1 2.7 -0.1
v -0.1 2.8 -0.1
v -0.1 3.1 -0.1
v 0.1 0.9 -0.1
v 0.1 1.1 -0.1
v 0.1 1.2 -0.1
v 0.1 1.6 -0.1
v 0.1 1.7 -0.1
v 0.1 2.2 -0.1
v 0.1 2.3 -0.1
v 0.1 2.9 -0.1
v 0.1 3 -0.1
v 0.1 3.1 -0.1
v 0.2 0.9 -0.1
v 0.2 1.5 -0.1
v 0.2 1.6 -0.1
v 0.2 1.7 -0.1
v 0.2 1.8 -0.1
v 0.2 2.2 -0.1
v 0.2 2.3 -0.1
v 0.2 3.1 -0.1
v 0.3 1.7 -0.1
v 0.3 1.8 -0.1
v 0.4 1.5 -0.1
v 0.4 1.6 -0.1
v 0.4 1.7 -0.1
v 0.4 1.8 -0.1
v 0.4 2 -0.1
v 0.5 1.5 -0.1
v 0.5 1.6 -0.1
v 0.5 1.7 -0.1
v 0.5 1.8 -0.1
v 0.5 2 -0.1
v 0.6 1.6 -0.1
v 0.6 2 -0.1
v -0.5 2.1 -0.2
v -0.5 2.3 -0.2
v -0.4 2.1 -0.2
v -0.4 2.2 -0.2
v -0.4 2.3 -0.2
v -0.2 2.1 -0.2
v -0.2 2.2 -0.2
v -0.1 0.9 -0.2
v -0.1 2.1 -0.2
v -0.1 2.2 -0.2
v -0.1 2.7 -0.2
v -0.1 2.8 -0.2
v -0.1 3.1 -0.2
v -5.96046e-08 1.1 -0.2
v -5.96046e-08 1.2 -0.2
v -5.96046e-08 2.7 -0.2
v -5.96046e-08 2.8 -0.2
v -5.96046e-08 2.9 -0.2
v -5.96046e-08 3 -0.2
v 0.1 0.9 -0.2
v 0.1 1.1 -0.2
v 0.1 1.2 -0.2
v 0.1 1.6 -0.2
v 0.1 1.7 -0.2
v 0.1 2.9 -0.2
v 0.1 3 -0.2
v 0.1 3.1 -0.2
v 0.2 1.6 -0.2
v 0.2 1.7 -0.2
v 0.4 1.6 -0.2
v 0.4 1.7 -0.2
v 0.4 1.8 -0.2
v 0.5 1.6 -0.2
v 0.5 1.7 -0.2
v 0.5 1.8 -0.2
v -0.1 0.9 0.1
v 0.1 0.9 0.1
v -0.2 0.9 0
v -0.1 0.9 0
v 0.1 0.9 0
v 0.2 0.9 0
v -0.2 0.9 -0.1
v -0.1 0.9 -0.1
v 0.1 0.9 -0.1
v 0.2 0.9 -0.1
v -0.1 0.9 -0.2
v 0.1 0.9 -0.2
v 0.2 1.5 0
v 0.4 1.5 0
v 0.5 1.5 0
v 0.2 1.5 -0.1
v 0.4 1.5 -0.1
v 0.5 1.5 -0.1
v 0.1 1.6 0.1
v 0.2 1.6 0.1
v 0.4 1.6 0.1
v 0.5 1.6 0.1
v 0.1 1.6 0
v 0.2 1.6 0
v 0.4 1.6 0
v 0.5 1.6 0
v 0.6 1.6 0
v 0.1 1.6 -0.1
v 0.2 1.6 -0.1
v 0.4 1.6 -0.1
v 0.5 1.6 -0.1
v 0.6 1.6 -0.1
v 0.1 1.6 -0.2
v 0.2 1.6 -0.2
v 0.4 1.6 -0.2
v 0.5 1.6 -0.2
v -0.5 2 0
v -0.4 2 0
v -0.2 2 0
v -0.5 2 -0.1
v -0.4 2 -0.1
v -0.2 2 -0.1
v -0.5 2.1 0.1
v -0.4 2.1 0.1
v -0.2 2.1 0.1
v -0.1 2.1 0.1
v -0.6 2.1 0
v -0.5 2.1 0
v -0.4 2.1 0
v -0.2 2.1 0
v -0.1 2.1 0
v -0.6 2.1 -0.1
v -0.5 2.1 -0.1
v -0.4 2.1 -0.1
v -0.2 2.1 -0.1
v -0.1 2.1 -0.1
v -0.5 2.1 -0.2
v -0.4 2.1 -0.2
v -0.2 2.1 -0.2
v -0.1 2.1 -0.2
v 0.1 1.7 0.1
v 0.2 1.7 0.1
v 0.4 1.7 0.1
v 0.1 1.7 0
v 0.2 1.7 0
v 0.3 1.7 0
v 0.4 1.7 0
v 0.1 1.7 -0.1
v 0.2 1.7 -0.1
v 0.3 1.7 -0.1
v 0.4 1.7 -0.1
v 0.1 1.7 -0.2
v 0.2 1.7 -0.2
v 0.4 1.7 -0.2
v 0.4 1.8 0.1
v 0.5 1.8 0.1
v 0.2 1.8 0
v 0.3 1.8 0
v 0.4 1.8 0
v 0.5 1.8 0
v 0.2 1.8 -0.1
v 0.3 1.8 -0.1
v 0.4 1.8 -0.1
v 0.5 1.8 -0.1
v 0.4 1.8 -0.2
v 0.5 1.8 -0.2
v 0.4 2 0
v 0.5 2 0
v 0.6 2 0
v 0.4 2 -0.1
v 0.5 2 -0.1
v 0.6 2 -0.1
v -0.4 2.2 0.1
v -0.2 2.2 0.1
v -0.1 2.2 0.1
v -0.4 2.2 0
v -0.2 2.2 0
v -0.1 2.2 0
v -0.4 2.2 -0.1
v -0.2 2.2 -0.1
v -0.1 2.2 -0.1
v -0.4 2.2 -0.2
v -0.2 2.2 -0.2
v -0.1 2.2 -0.2
v -0.5 2.3 0.1
v -0.4 2.3 0.1
v -0.5 2.3 0
v -0.4 2.3 0
v -0.2 2.3 0
v -0.5 2.3 -0.1
v -0.4 2.3 -0.1
v -0.2 2.3 -0.1
v -0.5 2.3 -0.2
v -0.4 2.3 -0.2
v -0.6 2.8 0
v -0.5 2.8 0
v -0.4 2.8 0
v -0.6 2.8 -0.1
v -0.5 2.8 -0.1
v -0.4 2.8 -0.1
v -0.1 3.1 0.1
v 0.1 3.1 0.1
v -0.2 3.1 0
v -0.1 3.1 0
v 0.1 3.1 0
v 0.2 3.1 0
v -0.2 3.1 -0.1
v -0.1 3.1 -0.1
v 0.1 3.1 -0.1
v 0.2 3.1 -0.1
v -0.1 3.1 -0.2
v 0.1 3.1 -0.2

# faces
f 3/1/1 2/1/1 1/1/1
f 4/1/1 2/1/1 3/1/1
f 5/3/1 4/3/1 3/3/1
f 6/3/1 4/3/1 5/3/1
f 7/1/1 6/1/1 5/1/1
f 8/1/1 6/1/1 7/1/1
f 12/4/1 10/4/1 9/4/1
f 13/4/1 10/4/1 12/4/1
f 15/4/1 12/4/1 11/4/1
f 16/4/1 14/4/1 13/4/1
f 17/4/1 15/4/1 11/4/1
f 18/4/1 15/4/1 17/4/1
f 19/4/1 14/4/1 16/4/1
f 20/4/1 14/4/1 19/4/1
f 23/5/1 22/5/1 21/5/1
f 24/5/1 22/5/1 23/5/1
f 25/3/1 24/3/1 23/3/1
f 26/3/1 24/3/1 25/3/1
f 29/3/1 28/3/1 27/3/1
f 30/3/1 28/3/1 29/3/1
f 31/5/1 30/5/1 29/5/1
f 32/5/1 30/5/1 31/5/1
f 37/6/1 34/6/1 33/6/1
f 38/6/1 36/6/1 35/6/1
f 39/6/1 37/6/1 33/6/1
f 40/6/1 36/6/1 38/6/1
f 41/6/1 39/6/1 33/6/1
f 42/6/1 39/6/1 41/6/1
f 43/6/1 36/6/1 40/6/1
f 44/6/1 36/6/1 43/6/1
f 49/6/1 46/6/1 45/6/1
f 50/6/1 48/6/1 47/6/1
f 51/6/1 49/6/1 45/6/1
f 52/6/1 48/6/1 50/6/1
f 53/6/1 51/6/1 45/6/1
f 54/6/1 51/6/1 53/6/1
f 55/6/1 48/6/1 52/6/1
f 56/6/1 48/6/1 55/6/1
f 57/3/1 54/3/1 53/3/1
f 58/3/1 54/3/1 57/3/1
f 59/3/1 56/3/1 55/3/1
f 60/3/1 56/3/1 59/3/1
f 61/6/1 58/6/1 57/6/1
f 62/6/1 58/6/1 61/6/1
f 63/6/1 60/6/1 59/6/1
f 64/6/1 60/6/1 63/6/1
f 69/4/1 66/4/1 65/4/1
f 70/4/1 66/4/1 69/4/1
f 71/4/1 68/4/1 67/4/1
f 72/4/1 68/4/1 71/4/1
f 73/4/1 71/4/1 70/4/1
f 74/4/1 71/4/1 73/4/1
f 75/4/2 76/4/2 79/4/2
f 79/4/2 76/4/2 80/4/2
f 77/4/2 78/4/2 81/4/2
f 81/4/2 78/4/2 82/4/2
f 80/4/2 81/4/2 83/4/2
f 83/4/2 81/4/2 84/4/2
f 85/6/2 86/6/2 89/6/2
f 89/6/2 86/6/2 90/6/2
f 87/6/2 88/6/2 91/6/2
f 91/6/2 88/6/2 92/6/2
f 89/3/2 90/3/2 93/3/2
f 93/3/2 90/3/2 94/3/2
f 91/3/2 92/3/2 95/3/2
f 95/3/2 92/3/2 96/3/2
f 93/6/2 94/6/2 97/6/2
f 97/6/2 94/6/2 98/6/2
f 95/6/2 96/6/2 99/6/2
f 99/6/2 96/6/2 100/6/2
f 101/6/2 102/6/2 105/6/2
f 103/6/2 104/6/2 106/6/2
f 101/6/2 105/6/2 107/6/2
f 106/6/2 104/6/2 108/6/2
f 101/6/2 107/6/2 109/6/2
f 109/6/2 107/6/2 110/6/2
f 108/6/2 104/6/2 111/6/2
f 111/6/2 104/6/2 112/6/2
f 109/3/2 110/3/2 113/3/2
f 113/3/2 110/3/2 114/3/2
f 111/3/2 112/3/2 115/3/2
f 115/3/2 112/3/2 116/3/2
f 113/6/2 114/6/2 117/6/2
f 117/6/2 114/6/2 118/6/2
f 115/6/2 116/6/2 119/6/2
f 119/6/2 116/6/2 120/6/2
f 121/5/2 122/5/2 123/5/2
f 123/5/2 122/5/2 124/5/2
f 125/5/2 126/5/2 127/5/2
f 127/5/2 126/5/2 128/5/2
f 127/3/2 128/3/2 129/3/2
f 129/3/2 128/3/2 130/3/2
f 129/5/2 130/5/2 131/5/2
f 131/5/2 130/5/2 132/5/2
f 133/4/2 134/4/2 136/4/2
f 136/4/2 134/4/2 137/4/2
f 135/3/2 136/3/2 139/3/2
f 139/3/2 136/3/2 140/3/2
f 137/3/2 138/3/2 141/3/2
f 141/3/2 138/3/2 142/3/2
f 139/4/2 140/4/2 143/4/2
f 143/4/2 140/4/2 144/4/2
f 141/4/2 142/4/2 145/4/2
f 145/4/2 142/4/2 146/4/2
f 147/1/2 148/1/2 149/1/2
f 149/1/2 148/1/2 150/1/2
f 153/4/3 152/4/3 151/4/3
f 154/4/3 152/4/3 153/4/3
f 155/4/3 152/4/3 154/4/3
f 156/2/3 154/2/3 153/2/3
f 157/2/3 154/2/3 156/2/3
f 159/5/3 157/5/3 156/5/3
f 160/5/3 157/5/3 159/5/3
f 164/6/3 160/6/3 159/6/3
f 164/6/3 159/6/3 158/6/3
f 164/6/3 161/6/3 160/6/3
f 165/6/3 161/6/3 164/6/3
f 166/3/3 162/3/3 161/3/3
f 166/6/3 161/6/3 165/6/3
f 167/6/3 163/6/3 162/6/3
f 167/3/3 162/3/3 166/3/3
f 168/6/3 163/6/3 167/6/3
f 169/6/3 163/6/3 168/6/3
f 170/6/3 164/6/3 158/6/3
f 171/3/3 165/3/3 164/3/3
f 171/6/3 164/6/3 170/6/3
f 172/6/3 166/6/3 165/6/3
f 172/3/3 165/3/3 171/3/3
f 172/6/3 167/6/3 166/6/3
f 172/6/3 168/6/3 167/6/3
f 173/6/3 168/6/3 172/6/3
f 174/6/3 168/6/3 173/6/3
f 175/3/3 169/3/3 168/3/3
f 175/6/3 168/6/3 174/6/3
f 176/6/3 163/6/3 169/6/3
f 176/3/3 169/3/3 175/3/3
f 177/6/3 163/6/3 176/6/3
f 178/5/3 174/5/3 173/5/3
f 179/5/3 174/5/3 178/5/3
f 180/2/3 179/2/3 178/2/3
f 181/2/3 179/2/3 180/2/3
f 183/3/3 181/3/3 180/3/3
f 184/4/3 182/4/3 181/4/3
f 184/3/3 181/3/3 183/3/3
f 185/4/3 182/4/3 184/4/3
f 191/1/3 187/1/3 186/1/3
f 192/3/3 188/3/3 187/3/3
f 192/1/3 187/1/3 191/1/3
f 193/1/3 189/1/3 188/1/3
f 193/3/3 188/3/3 192/3/3
f 194/1/3 189/1/3 193/1/3
f 195/4/3 191/4/3 190/4/3
f 196/4/3 191/4/3 195/4/3
f 198/4/3 194/4/3 193/4/3
f 199/4/3 194/4/3 198/4/3
f 202/2/3 196/2/3 195/2/3
f 203/2/3 196/2/3 202/2/3
f 204/2/3 198/2/3 197/2/3
f 205/2/3 198/2/3 204/2/3
f 208/5/3 201/5/3 200/5/3
f 209/3/3 202/3/3 201/3/3
f 209/5/3 201/5/3 208/5/3
f 210/5/3 203/5/3 202/5/3
f 210/3/3 202/3/3 209/3/3
f 211/5/3 203/5/3 210/5/3
f 212/5/3 205/5/3 204/5/3
f 213/3/3 206/3/3 205/3/3
f 213/5/3 205/5/3 212/5/3
f 214/5/3 207/5/3 206/5/3
f 214/3/3 206/3/3 213/3/3
f 215/5/3 207/5/3 214/5/3
f 216/5/3 207/5/3 215/5/3
f 217/5/3 207/5/3 216/5/3
f 228/5/3 219/5/3 218/5/3
f 228/5/3 220/5/3 219/5/3
f 228/5/3 221/5/3 220/5/3
f 229/5/3 221/5/3 228/5/3
f 230/5/3 221/5/3 229/5/3
f 231/5/3 223/5/3 222/5/3
f 232/5/3 223/5/3 231/5/3
f 233/3/3 224/3/3 223/3/3
f 233/5/3 223/5/3 232/5/3
f 234/5/3 227/5/3 226/5/3
f 234/3/3 224/3/3 233/3/3
f 234/5/3 226/5/3 225/5/3
f 234/5/3 225/5/3 224/5/3
f 235/5/3 227/5/3 234/5/3
f 236/3/3 232/3/3 231/3/3
f 237/3/3 232/3/3 236/3/3
f 238/2/3 230/2/3 229/2/3
f 239/2/3 230/2/3 238/2/3
f 240/2/3 237/2/3 236/2/3
f 241/2/3 237/2/3 240/2/3
f 243/4/3 239/4/3 238/4/3
f 244/4/3 239/4/3 243/4/3
f 246/4/3 242/4/3 241/4/3
f 247/4/3 242/4/3 246/4/3
f 248/1/3 245/1/3 244/1/3
f 248/1/3 247/1/3 246/1/3
f 248/1/3 246/1/3 245/1/3
f 249/1/3 247/1/3 248/1/3
f 250/1/4 251/1/4 255/1/4
f 251/3/4 252/3/4 256/3/4
f 255/1/4 251/1/4 256/1/4
f 252/1/4 253/1/4 257/1/4
f 256/3/4 252/3/4 257/3/4
f 257/1/4 253/1/4 258/1/4
f 254/4/4 255/4/4 259/4/4
f 259/4/4 255/4/4 260/4/4
f 257/4/4 258/4/4 262/4/4
f 262/4/4 258/4/4 263/4/4
f 259/2/4 260/2/4 266/2/4
f 266/2/4 260/2/4 267/2/4
f 261/2/4 262/2/4 268/2/4
f 268/2/4 262/2/4 269/2/4
f 264/5/4 265/5/4 272/5/4
f 265/3/4 266/3/4 273/3/4
f 272/5/4 265/5/4 273/5/4
f 266/5/4 267/5/4 274/5/4
f 273/3/4 266/3/4 274/3/4
f 274/5/4 267/5/4 275/5/4
f 268/5/4 269/5/4 276/5/4
f 269/3/4 270/3/4 277/3/4
f 276/5/4 269/5/4 277/5/4
f 270/5/4 271/5/4 278/5/4
f 277/3/4 270/3/4 278/3/4
f 278/5/4 271/5/4 279/5/4
f 279/5/4 271/5/4 280/5/4
f 280/5/4 271/5/4 281/5/4
f 282/5/4 283/5/4 292/5/4
f 283/5/4 284/5/4 292/5/4
f 284/5/4 285/5/4 292/5/4
f 292/5/4 285/5/4 293/5/4
f 293/5/4 285/5/4 294/5/4
f 286/5/4 287/5/4 295/5/4
f 295/5/4 287/5/4 296/5/4
f 287/3/4 288/3/4 297/3/4
f 296/5/4 287/5/4 297/5/4
f 290/5/4 291/5/4 298/5/4
f 297/3/4 288/3/4 298/3/4
f 289/5/4 290/5/4 298/5/4
f 288/5/4 289/5/4 298/5/4
f 298/5/4 291/5/4 299/5/4
f 295/3/4 296/3/4 300/3/4
f 300/3/4 296/3/4 301/3/4
f 293/2/4 294/2/4 302/2/4
f 302/2/4 294/2/4 303/2/4
f 300/2/4 301/2/4 304/2/4
f 304/2/4 301/2/4 305/2/4
f 302/4/4 303/4/4 307/4/4
f 307/4/4 303/4/4 308/4/4
f 305/4/4 306/4/4 310/4/4
f 310/4/4 306/4/4 311/4/4
f 308/1/4 309/1/4 312/1/4
f 310/1/4 311/1/4 312/1/4
f 309/1/4 310/1/4 312/1/4
f 312/1/4 311/1/4 313/1/4
f 314/4/4 315/4/4 316/4/4
f 316/4/4 315/4/4 317/4/4
f 317/4/4 315/4/4 318/4/4
f 316/2/4 317/2/4 319/2/4
f 319/2/4 317/2/4 320/2/4
f 319/5/4 320/5/4 322/5/4
f 322/5/4 320/5/4 323/5/4
f 322/6/4 323/6/4 327/6/4
f 321/6/4 322/6/4 327/6/4
f 323/6/4 324/6/4 327/6/4
f 327/6/4 324/6/4 328/6/4
f 324/3/4 325/3/4 329/3/4
f 328/6/4 324/6/4 329/6/4
f 325/6/4 326/6/4 330/6/4
f 329/3/4 325/3/4 330/3/4
f 330/6/4 326/6/4 331/6/4
f 331/6/4 326/6/4 332/6/4
f 321/6/4 327/6/4 333/6/4
f 327/3/4 328/3/4 334/3/4
f 333/6/4 327/6/4 334/6/4
f 328/6/4 329/6/4 335/6/4
f 334/3/4 328/3/4 335/3/4
f 329/6/4 330/6/4 335/6/4
f 330/6/4 331/6/4 335/6/4
f 335/6/4 331/6/4 336/6/4
f 336/6/4 331/6/4 337/6/4
f 331/3/4 332/3/4 338/3/4
f 337/6/4 331/6/4 338/6/4
f 332/6/4 326/6/4 339/6/4
f 338/3/4 332/3/4 339/3/4
f 339/6/4 326/6/4 340/6/4
f 336/5/4 337/5/4 341/5/4
f 341/5/4 337/5/4 342/5/4
f 341/2/4 342/2/4 343/2/4
f 343/2/4 342/2/4 344/2/4
f 343/3/4 344/3/4 346/3/4
f 344/4/4 345/4/4 347/4/4
f 346/3/4 344/3/4 347/3/4
f 347/4/4 345/4/4 348/4/4
f 352/6/5 350/6/5 349/6/5
f 353/6/5 350/6/5 352/6/5
f 355/5/5 352/5/5 351/5/5
f 356/6/5 353/6/5 352/6/5
f 356/5/5 352/5/5 355/5/5
f 357/5/5 354/5/5 353/5/5
f 357/6/5 353/6/5 356/6/5
f 358/5/5 354/5/5 357/5/5
f 359/6/5 357/6/5 356/6/5
f 360/6/5 357/6/5 359/6/5
f 364/2/5 362/2/5 361/2/5
f 365/4/5 363/4/5 362/4/5
f 365/2/5 362/2/5 364/2/5
f 366/4/5 363/4/5 365/4/5
f 371/5/5 368/5/5 367/5/5
f 372/2/5 369/2/5 368/2/5
f 372/5/5 368/5/5 371/5/5
f 373/3/5 370/3/5 369/3/5
f 373/2/5 369/2/5 372/2/5
f 374/3/5 370/3/5 373/3/5
f 379/1/5 375/1/5 374/1/5
f 380/1/5 375/1/5 379/1/5
f 381/5/5 377/5/5 376/5/5
f 382/2/5 378/2/5 377/2/5
f 382/5/5 377/5/5 381/5/5
f 383/3/5 379/3/5 378/3/5
f 383/2/5 378/2/5 382/2/5
f 384/3/5 379/3/5 383/3/5
f 388/4/5 386/4/5 385/4/5
f 389/2/5 387/2/5 386/2/5
f 389/4/5 386/4/5 388/4/5
f 390/2/5 387/2/5 389/2/5
f 396/4/5 392/4/5 391/4/5
f 397/2/5 393/2/5 392/2/5
f 397/4/5 392/4/5 396/4/5
f 398/5/5 394/5/5 393/5/5
f 398/2/5 393/2/5 397/2/5
f 399/5/5 394/5/5 398/5/5
f 400/1/5 396/1/5 395/1/5
f 401/1/5 396/1/5 400/1/5
f 405/4/5 402/4/5 401/4/5
f 406/2/5 403/2/5 402/2/5
f 406/4/5 402/4/5 405/4/5
f 407/5/5 404/5/5 403/5/5
f 407/2/5 403/2/5 406/2/5
f 408/5/5 404/5/5 407/5/5
f 409/5/6 410/5/6 412/5/6
f 410/2/6 411/2/6 413/2/6
f 412/5/6 410/5/6 413/5/6
f 413/2/6 411/2/6 414/2/6
f 414/2/6 411/2/6 415/2/6
f 416/5/6 417/5/6 420/5/6
f 418/2/6 419/2/6 421/2/6
f 420/5/6 417/5/6 421/5/6
f 417/2/6 418/2/6 421/2/6
f 421/2/6 419/2/6 422/2/6
f 423/4/6 424/4/6 427/4/6
f 427/4/6 424/4/6 428/4/6
f 425/3/6 426/3/6 429/3/6
f 426/2/6 427/2/6 430/2/6
f 429/3/6 426/3/6 430/3/6
f 430/2/6 427/2/6 431/2/6
f 431/4/6 432/4/6 433/4/6
f 433/4/6 432/4/6 434/4/6
f 435/4/6 436/4/6 438/4/6
f 436/1/6 437/1/6 439/1/6
f 438/4/6 436/4/6 439/4/6
f 439/1/6 437/1/6 440/1/6
f 441/2/6 442/2/6 444/2/6
f 442/5/6 443/5/6 445/5/6
f 444/2/6 442/2/6 445/2/6
f 445/5/6 443/5/6 446/5/6
f 447/2/6 448/2/6 450/2/6
f 448/5/6 449/5/6 451/5/6
f 450/2/6 448/2/6 451/2/6
f 451/5/6 449/5/6 452/5/6
f 453/4/6 454/4/6 455/4/6
f 455/4/6 454/4/6 456/4/6
f 456/2/6 457/2/6 459/2/6
f 459/2/6 457/2/6 460/2/6
f 458/4/6 459/4/6 461/4/6
f 461/4/6 459/4/6 462/4/6
f 463/1/6 464/1/6 466/1/6
f 464/4/6 465/4/6 467/4/6
f 466/1/6 464/1/6 467/1/6
f 467/4/6 465/4/6 468/4/6
f 469/6/6 470/6/6 472/6/6
f 472/6/6 470/6/6 473/6/6
f 471/5/6 472/5/6 475/5/6
f 472/6/6 473/6/6 476/6/6
f 475/5/6 472/5/6 476/5/6
f 473/5/6 474/5/6 477/5/6
f 476/6/6 473/6/6 477/6/6
f 477/5/6 474/5/6 478/5/6
f 476/6/6 477/6/6 479/6/6
f 479/6/6 477/6/6 480/6/6
