# MagicaVoxel @ Ephtracy

# group
o 

# material
mtllib crow2.mtl
usemtl palette

# normals
vn -1 0 0
vn 1 0 0
vn 0 0 1
vn 0 0 -1
vn 0 -1 0
vn 0 1 0

# texcoords
vt 0.00195312 0.5
vt 0.677734 0.5
vt 0.681641 0.5
vt 0.685547 0.5

# verts
v -1.1 2.3 0
v -1.1 2.3 -0.1
v -1.1 2.4 0
v -1.1 2.4 -0.1
v -1 2.3 0.1
v -1 2.3 0
v -1 2.3 -0.1
v -1 2.3 -0.2
v -1 2.4 0.1
v -1 2.4 0
v -1 2.4 -0.1
v -1 2.4 -0.2
v -1 2.5 0
v -1 2.5 -0.1
v -0.9 2.4 0.1
v -0.9 2.4 0
v -0.9 2.4 -0.1
v -0.9 2.4 -0.2
v -0.9 2.5 0.1
v -0.9 2.5 0
v -0.9 2.5 -0.1
v -0.9 2.5 -0.2
v -0.9 2.6 0
v -0.9 2.6 -0.1
v -0.8 2.5 0.1
v -0.8 2.5 0
v -0.8 2.5 -0.1
v -0.8 2.5 -0.2
v -0.8 2.6 0.1
v -0.8 2.6 0
v -0.8 2.6 -0.1
v -0.8 2.6 -0.2
v -0.8 2.7 0
v -0.8 2.7 -0.1
v -0.7 2.6 0.1
v -0.7 2.6 0
v -0.7 2.6 -0.1
v -0.7 2.6 -0.2
v -0.7 2.7 0.1
v -0.7 2.7 0
v -0.7 2.7 -0.1
v -0.7 2.7 -0.2
v -0.7 2.8 0
v -0.7 2.8 -0.1
v -0.5 2.2 0
v -0.5 2.2 -0.1
v -0.5 2.3 0
v -0.5 2.3 -0.1
v -0.4 2.1 0
v -0.4 2.1 -0.1
v -0.4 2.2 0.1
v -0.4 2.2 0
v -0.4 2.2 -0.1
v -0.4 2.2 -0.2
v -0.4 2.3 0.1
v -0.4 2.3 0
v -0.4 2.3 -0.1
v -0.4 2.3 -0.2
v -0.3 2 0
v -0.3 2 -0.1
v -0.3 2.1 0
v -0.3 2.1 -0.1
v -0.2 1.2 0
v -0.2 1.2 -0.1
v -0.2 1.3 0.1
v -0.2 1.3 0
v -0.2 1.3 -0.1
v -0.2 1.3 -0.2
v -0.2 2 0
v -0.2 2 -0.1
v -0.2 2.1 0
v -0.2 2.1 -0.1
v -0.2 2.2 0.1
v -0.2 2.2 0
v -0.2 2.2 -0.1
v -0.2 2.2 -0.2
v -0.6 2.6 0.1
v -0.6 2.6 0
v -0.6 2.6 -0.1
v -0.6 2.6 -0.2
v -0.6 2.7 0.1
v -0.6 2.7 0
v -0.6 2.7 -0.1
v -0.6 2.7 -0.2
v -0.6 2.8 0
v -0.6 2.8 -0.1
v -0.5 2.5 0.1
v -0.5 2.5 0
v -0.5 2.5 -0.1
v -0.5 2.5 -0.2
v -0.5 2.6 0.1
v -0.5 2.6 0
v -0.5 2.6 -0.1
v -0.5 2.6 -0.2
v -0.5 2.7 0
v -0.5 2.7 -0.1
v -0.4 2.3 0.1
v -0.4 2.3 0
v -0.4 2.3 -0.1
v -0.4 2.3 -0.2
v -0.4 2.5 0.1
v -0.4 2.5 0
v -0.4 2.5 -0.1
v -0.4 2.5 -0.2
v -0.4 2.6 0
v -0.4 2.6 -0.1
v -0.3 2.3 0
v -0.3 2.3 -0.1
v -0.3 2.5 0
v -0.3 2.5 -0.1
v -0.2 2.2 0.1
v -0.2 2.2 0
v -0.2 2.2 -0.1
v -0.2 2.2 -0.2
v -0.2 2.3 0.1
v -0.2 2.3 0
v -0.2 2.3 -0.1
v -0.2 2.3 -0.2
v -0.1 1.2 0
v -0.1 1.2 -0.1
v -0.1 1.3 0.1
v -0.1 1.3 0
v -0.1 1.3 -0.1
v -0.1 1.3 -0.2
v -0.1 1.4 0
v -0.1 1.4 -0.1
v -0.1 1.5 0.1
v -0.1 1.5 0
v -0.1 1.5 -0.1
v -0.1 1.5 -0.2
v 0 1.3 0
v 0 1.3 -0.1
v 0 1.4 0
v 0 1.4 -0.1
v 0 1.5 0.1
v 0 1.5 0
v 0 1.5 -0.1
v 0 1.5 -0.2
v 0 1.6 0.1
v 0 1.6 0
v 0 1.6 -0.1
v 0 1.6 -0.2
v 0.1 1.4 0
v 0.1 1.4 -0.1
v 0.1 1.5 0
v 0.1 1.5 -0.1
v 0.1 1.6 0.1
v 0.1 1.6 0
v 0.1 1.6 -0.1
v 0.1 1.6 -0.2
v 0.1 1.7 0.1
v 0.1 1.7 0
v 0.1 1.7 -0.1
v 0.1 1.7 -0.2
v 0.8 1.7 0.1
v 0.8 1.7 0
v 0.8 1.7 -0.1
v 0.8 1.7 -0.2
v 0.8 2.2 0.1
v 0.8 2.2 0
v 0.8 2.2 -0.1
v 0.8 2.2 -0.2
v 0.8 2.3 0
v 0.8 2.3 -0.1
v 0.9 1.6 0
v 0.9 1.6 -0.1
v 0.9 1.7 0
v 0.9 1.7 -0.1
v 0.9 1.8 0
v 0.9 1.8 -0.1
v 0.9 2 0
v 0.9 2 -0.1
v 0.9 2.1 0
v 0.9 2.1 -0.1
v 0.9 2.2 0
v 0.9 2.2 -0.1
v 1.1 1.7 0
v 1.1 1.7 -0.1
v 1.1 1.8 0
v 1.1 1.8 -0.1
v 1.1 2 0
v 1.1 2 -0.1
v 1.1 2.1 0
v 1.1 2.1 -0.1
v -1 2.3 0.1
v -1 2.4 0.1
v -0.9 2.4 0.1
v -0.9 2.5 0.1
v -0.8 2.5 0.1
v -0.8 2.6 0.1
v -0.7 2.5 0.1
v -0.7 2.6 0.1
v -0.7 2.7 0.1
v -0.6 2.6 0.1
v -0.6 2.7 0.1
v -0.5 2.5 0.1
v -0.5 2.6 0.1
v -0.4 2.2 0.1
v -0.4 2.3 0.1
v -0.4 2.5 0.1
v -0.2 1.3 0.1
v -0.2 2.2 0.1
v -0.2 2.3 0.1
v -0.1 1.3 0.1
v -0.1 1.5 0.1
v 0 1.5 0.1
v 0 1.6 0.1
v 0.1 1.6 0.1
v 0.1 1.7 0.1
v 0.8 1.7 0.1
v 0.8 2.2 0.1
v -1.1 2.3 0
v -1.1 2.4 0
v -1 2.3 0
v -1 2.4 0
v -1 2.5 0
v -0.9 2.4 0
v -0.9 2.5 0
v -0.9 2.6 0
v -0.8 2.5 0
v -0.8 2.6 0
v -0.8 2.7 0
v -0.7 2.6 0
v -0.7 2.7 0
v -0.7 2.8 0
v -0.6 2.6 0
v -0.6 2.7 0
v -0.6 2.8 0
v -0.5 2.2 0
v -0.5 2.3 0
v -0.5 2.5 0
v -0.5 2.6 0
v -0.5 2.7 0
v -0.4 2.1 0
v -0.4 2.2 0
v -0.4 2.3 0
v -0.4 2.5 0
v -0.4 2.6 0
v -0.3 2 0
v -0.3 2.1 0
v -0.3 2.3 0
v -0.3 2.5 0
v -0.2 1.2 0
v -0.2 1.3 0
v -0.2 2 0
v -0.2 2.1 0
v -0.2 2.2 0
v -0.2 2.3 0
v -0.1 1.2 0
v -0.1 1.3 0
v -0.1 1.4 0
v -0.1 1.5 0
v 0 1.3 0
v 0 1.4 0
v 0 1.5 0
v 0 1.6 0
v 0.1 1.4 0
v 0.1 1.5 0
v 0.1 1.6 0
v 0.1 1.7 0
v 0.4 1.6 0
v 0.4 1.7 0
v 0.8 1.6 0
v 0.8 1.7 0
v 0.8 2.2 0
v 0.8 2.3 0
v 0.9 1.6 0
v 0.9 1.7 0
v 0.9 1.8 0
v 0.9 2 0
v 0.9 2.1 0
v 0.9 2.2 0
v 1.1 1.7 0
v 1.1 1.8 0
v 1.1 2 0
v 1.1 2.1 0
v -1.1 2.3 -0.1
v -1.1 2.4 -0.1
v -1 2.3 -0.1
v -1 2.4 -0.1
v -1 2.5 -0.1
v -0.9 2.4 -0.1
v -0.9 2.5 -0.1
v -0.9 2.6 -0.1
v -0.8 2.5 -0.1
v -0.8 2.6 -0.1
v -0.8 2.7 -0.1
v -0.7 2.6 -0.1
v -0.7 2.7 -0.1
v -0.7 2.8 -0.1
v -0.6 2.6 -0.1
v -0.6 2.7 -0.1
v -0.6 2.8 -0.1
v -0.5 2.2 -0.1
v -0.5 2.3 -0.1
v -0.5 2.5 -0.1
v -0.5 2.6 -0.1
v -0.5 2.7 -0.1
v -0.4 2.1 -0.1
v -0.4 2.2 -0.1
v -0.4 2.3 -0.1
v -0.4 2.5 -0.1
v -0.4 2.6 -0.1
v -0.3 2 -0.1
v -0.3 2.1 -0.1
v -0.3 2.3 -0.1
v -0.3 2.5 -0.1
v -0.2 1.2 -0.1
v -0.2 1.3 -0.1
v -0.2 2 -0.1
v -0.2 2.1 -0.1
v -0.2 2.2 -0.1
v -0.2 2.3 -0.1
v -0.1 1.2 -0.1
v -0.1 1.3 -0.1
v -0.1 1.4 -0.1
v -0.1 1.5 -0.1
v 0 1.3 -0.1
v 0 1.4 -0.1
v 0 1.5 -0.1
v 0 1.6 -0.1
v 0.1 1.4 -0.1
v 0.1 1.5 -0.1
v 0.1 1.6 -0.1
v 0.1 1.7 -0.1
v 0.4 1.6 -0.1
v 0.4 1.7 -0.1
v 0.8 1.6 -0.1
v 0.8 1.7 -0.1
v 0.8 2.2 -0.1
v 0.8 2.3 -0.1
v 0.9 1.6 -0.1
v 0.9 1.7 -0.1
v 0.9 1.8 -0.1
v 0.9 2 -0.1
v 0.9 2.1 -0.1
v 0.9 2.2 -0.1
v 1.1 1.7 -0.1
v 1.1 1.8 -0.1
v 1.1 2 -0.1
v 1.1 2.1 -0.1
v -1 2.3 -0.2
v -1 2.4 -0.2
v -0.9 2.4 -0.2
v -0.9 2.5 -0.2
v -0.8 2.5 -0.2
v -0.8 2.6 -0.2
v -0.7 2.5 -0.2
v -0.7 2.6 -0.2
v -0.7 2.7 -0.2
v -0.6 2.6 -0.2
v -0.6 2.7 -0.2
v -0.5 2.5 -0.2
v -0.5 2.6 -0.2
v -0.4 2.2 -0.2
v -0.4 2.3 -0.2
v -0.4 2.5 -0.2
v -0.2 1.3 -0.2
v -0.2 2.2 -0.2
v -0.2 2.3 -0.2
v -0.1 1.3 -0.2
v -0.1 1.5 -0.2
v 0 1.5 -0.2
v 0 1.6 -0.2
v 0.1 1.6 -0.2
v 0.1 1.7 -0.2
v 0.8 1.7 -0.2
v 0.8 2.2 -0.2
v -0.2 1.2 0
v -0.1 1.2 0
v -0.2 1.2 -0.1
v -0.1 1.2 -0.1
v -0.2 1.3 0.1
v -0.1 1.3 0.1
v -0.2 1.3 0
v -0.1 1.3 0
v 0 1.3 0
v -0.2 1.3 -0.1
v -0.1 1.3 -0.1
v 0 1.3 -0.1
v -0.2 1.3 -0.2
v -0.1 1.3 -0.2
v 0 1.4 0
v 0.1 1.4 0
v 0 1.4 -0.1
v 0.1 1.4 -0.1
v -0.1 1.5 0.1
v 0 1.5 0.1
v -0.1 1.5 0
v 0 1.5 0
v -0.1 1.5 -0.1
v 0 1.5 -0.1
v -0.1 1.5 -0.2
v 0 1.5 -0.2
v 0 1.6 0.1
v 0.1 1.6 0.1
v 0 1.6 0
v 0.1 1.6 0
v 0.4 1.6 0
v 0.8 1.6 0
v 0.9 1.6 0
v 0 1.6 -0.1
v 0.1 1.6 -0.1
v 0.4 1.6 -0.1
v 0.8 1.6 -0.1
v 0.9 1.6 -0.1
v 0 1.6 -0.2
v 0.1 1.6 -0.2
v 0.1 1.7 0.1
v 0.8 1.7 0.1
v 0.1 1.7 0
v 0.4 1.7 0
v 0.8 1.7 0
v 0.9 1.7 0
v 1.1 1.7 0
v 0.1 1.7 -0.1
v 0.4 1.7 -0.1
v 0.8 1.7 -0.1
v 0.9 1.7 -0.1
v 1.1 1.7 -0.1
v 0.1 1.7 -0.2
v 0.8 1.7 -0.2
v -0.3 2 0
v -0.2 2 0
v 0.9 2 0
v 1.1 2 0
v -0.3 2 -0.1
v -0.2 2 -0.1
v 0.9 2 -0.1
v 1.1 2 -0.1
v -0.4 2.1 0
v -0.3 2.1 0
v -0.4 2.1 -0.1
v -0.3 2.1 -0.1
v -0.4 2.2 0.1
v -0.2 2.2 0.1
v -0.5 2.2 0
v -0.4 2.2 0
v -0.2 2.2 0
v -0.5 2.2 -0.1
v -0.4 2.2 -0.1
v -0.2 2.2 -0.1
v -0.4 2.2 -0.2
v -0.2 2.2 -0.2
v -1 2.3 0.1
v -0.4 2.3 0.1
v -1.1 2.3 0
v -1 2.3 0
v -0.5 2.3 0
v -0.4 2.3 0
v -1.1 2.3 -0.1
v -1 2.3 -0.1
v -0.5 2.3 -0.1
v -0.4 2.3 -0.1
v -1 2.3 -0.2
v -0.4 2.3 -0.2
v 0.9 1.8 0
v 1.1 1.8 0
v 0.9 1.8 -0.1
v 1.1 1.8 -0.1
v 0.9 2.1 0
v 1.1 2.1 0
v 0.9 2.1 -0.1
v 1.1 2.1 -0.1
v -0.2 2.2 0.1
v 0.8 2.2 0.1
v -0.2 2.2 0
v 0.8 2.2 0
v 0.9 2.2 0
v -0.2 2.2 -0.1
v 0.8 2.2 -0.1
v 0.9 2.2 -0.1
v -0.2 2.2 -0.2
v 0.8 2.2 -0.2
v -0.4 2.3 0.1
v -0.2 2.3 0.1
v -0.4 2.3 0
v -0.3 2.3 0
v -0.2 2.3 0
v 0.8 2.3 0
v -0.4 2.3 -0.1
v -0.3 2.3 -0.1
v -0.2 2.3 -0.1
v 0.8 2.3 -0.1
v -0.4 2.3 -0.2
v -0.2 2.3 -0.2
v -1 2.4 0.1
v -0.9 2.4 0.1
v -1.1 2.4 0
v -1 2.4 0
v -0.9 2.4 0
v -1.1 2.4 -0.1
v -1 2.4 -0.1
v -0.9 2.4 -0.1
v -1 2.4 -0.2
v -0.9 2.4 -0.2
v -0.9 2.5 0.1
v -0.8 2.5 0.1
v -0.5 2.5 0.1
v -0.4 2.5 0.1
v -1 2.5 0
v -0.9 2.5 0
v -0.8 2.5 0
v -0.5 2.5 0
v -0.4 2.5 0
v -0.3 2.5 0
v -1 2.5 -0.1
v -0.9 2.5 -0.1
v -0.8 2.5 -0.1
v -0.5 2.5 -0.1
v -0.4 2.5 -0.1
v -0.3 2.5 -0.1
v -0.9 2.5 -0.2
v -0.8 2.5 -0.2
v -0.5 2.5 -0.2
v -0.4 2.5 -0.2
v -0.8 2.6 0.1
v -0.7 2.6 0.1
v -0.6 2.6 0.1
v -0.5 2.6 0.1
v -0.9 2.6 0
v -0.8 2.6 0
v -0.7 2.6 0
v -0.6 2.6 0
v -0.5 2.6 0
v -0.4 2.6 0
v -0.9 2.6 -0.1
v -0.8 2.6 -0.1
v -0.7 2.6 -0.1
v -0.6 2.6 -0.1
v -0.5 2.6 -0.1
v -0.4 2.6 -0.1
v -0.8 2.6 -0.2
v -0.7 2.6 -0.2
v -0.6 2.6 -0.2
v -0.5 2.6 -0.2
v -0.7 2.7 0.1
v -0.6 2.7 0.1
v -0.8 2.7 0
v -0.7 2.7 0
v -0.6 2.7 0
v -0.5 2.7 0
v -0.8 2.7 -0.1
v -0.7 2.7 -0.1
v -0.6 2.7 -0.1
v -0.5 2.7 -0.1
v -0.7 2.7 -0.2
v -0.6 2.7 -0.2
v -0.7 2.8 0
v -0.6 2.8 0
v -0.7 2.8 -0.1
v -0.6 2.8 -0.1

# faces
f 3/2/1 2/2/1 1/2/1
f 4/2/1 2/2/1 3/2/1
f 9/2/1 6/2/1 5/2/1
f 10/2/1 6/2/1 9/2/1
f 11/2/1 8/2/1 7/2/1
f 12/2/1 8/2/1 11/2/1
f 13/2/1 11/2/1 10/2/1
f 14/2/1 11/2/1 13/2/1
f 19/2/1 16/2/1 15/2/1
f 20/2/1 16/2/1 19/2/1
f 21/2/1 18/2/1 17/2/1
f 22/2/1 18/2/1 21/2/1
f 23/2/1 21/2/1 20/2/1
f 24/2/1 21/2/1 23/2/1
f 29/1/1 26/1/1 25/1/1
f 30/1/1 26/1/1 29/1/1
f 31/1/1 28/1/1 27/1/1
f 32/1/1 28/1/1 31/1/1
f 33/2/1 31/2/1 30/2/1
f 34/2/1 31/2/1 33/2/1
f 39/2/1 36/2/1 35/2/1
f 40/2/1 36/2/1 39/2/1
f 41/2/1 38/2/1 37/2/1
f 42/2/1 38/2/1 41/2/1
f 43/2/1 41/2/1 40/2/1
f 44/2/1 41/2/1 43/2/1
f 47/3/1 46/3/1 45/3/1
f 48/3/1 46/3/1 47/3/1
f 52/4/1 50/4/1 49/4/1
f 53/4/1 50/4/1 52/4/1
f 55/2/1 52/2/1 51/2/1
f 56/2/1 52/2/1 55/2/1
f 57/2/1 54/2/1 53/2/1
f 58/2/1 54/2/1 57/2/1
f 61/3/1 60/3/1 59/3/1
f 62/3/1 60/3/1 61/3/1
f 66/4/1 64/4/1 63/4/1
f 67/4/1 64/4/1 66/4/1
f 69/2/1 66/2/1 65/2/1
f 69/2/1 68/2/1 67/2/1
f 69/2/1 67/2/1 66/2/1
f 70/2/1 68/2/1 69/2/1
f 71/2/1 69/2/1 65/2/1
f 72/2/1 68/2/1 70/2/1
f 73/2/1 71/2/1 65/2/1
f 74/2/1 71/2/1 73/2/1
f 75/2/1 68/2/1 72/2/1
f 76/2/1 68/2/1 75/2/1
f 77/2/2 78/2/2 81/2/2
f 81/2/2 78/2/2 82/2/2
f 79/2/2 80/2/2 83/2/2
f 83/2/2 80/2/2 84/2/2
f 82/2/2 83/2/2 85/2/2
f 85/2/2 83/2/2 86/2/2
f 87/2/2 88/2/2 91/2/2
f 91/2/2 88/2/2 92/2/2
f 89/2/2 90/2/2 93/2/2
f 93/2/2 90/2/2 94/2/2
f 92/2/2 93/2/2 95/2/2
f 95/2/2 93/2/2 96/2/2
f 97/2/2 98/2/2 101/2/2
f 101/2/2 98/2/2 102/2/2
f 99/2/2 100/2/2 103/2/2
f 103/2/2 100/2/2 104/2/2
f 102/2/2 103/2/2 105/2/2
f 105/2/2 103/2/2 106/2/2
f 107/2/2 108/2/2 109/2/2
f 109/2/2 108/2/2 110/2/2
f 111/2/2 112/2/2 115/2/2
f 115/2/2 112/2/2 116/2/2
f 113/2/2 114/2/2 117/2/2
f 117/2/2 114/2/2 118/2/2
f 119/4/2 120/4/2 122/4/2
f 122/4/2 120/4/2 123/4/2
f 121/2/2 122/2/2 125/2/2
f 123/2/2 124/2/2 126/2/2
f 121/2/2 125/2/2 127/2/2
f 127/2/2 125/2/2 128/2/2
f 126/2/2 124/2/2 129/2/2
f 129/2/2 124/2/2 130/2/2
f 131/4/2 132/4/2 133/4/2
f 133/4/2 132/4/2 134/4/2
f 135/2/2 136/2/2 139/2/2
f 139/2/2 136/2/2 140/2/2
f 137/2/2 138/2/2 141/2/2
f 141/2/2 138/2/2 142/2/2
f 143/4/2 144/4/2 145/4/2
f 145/4/2 144/4/2 146/4/2
f 145/3/2 146/3/2 148/3/2
f 148/3/2 146/3/2 149/3/2
f 147/2/2 148/2/2 151/2/2
f 151/2/2 148/2/2 152/2/2
f 149/2/2 150/2/2 153/2/2
f 153/2/2 150/2/2 154/2/2
f 155/2/2 156/2/2 159/2/2
f 159/2/2 156/2/2 160/2/2
f 157/2/2 158/2/2 161/2/2
f 161/2/2 158/2/2 162/2/2
f 160/2/2 161/2/2 163/2/2
f 163/2/2 161/2/2 164/2/2
f 165/3/2 166/3/2 167/3/2
f 167/3/2 166/3/2 168/3/2
f 169/2/2 170/2/2 171/2/2
f 171/2/2 170/2/2 172/2/2
f 173/2/2 174/2/2 175/2/2
f 175/2/2 174/2/2 176/2/2
f 177/4/2 178/4/2 179/4/2
f 179/4/2 178/4/2 180/4/2
f 181/2/2 182/2/2 183/2/2
f 183/2/2 182/2/2 184/2/2
f 187/2/3 186/2/3 185/2/3
f 189/2/3 188/2/3 187/2/3
f 191/2/3 189/2/3 187/2/3
f 191/1/3 190/1/3 189/1/3
f 192/1/3 190/1/3 191/1/3
f 194/2/3 192/2/3 191/2/3
f 194/2/3 193/2/3 192/2/3
f 195/2/3 193/2/3 194/2/3
f 196/2/3 191/2/3 187/2/3
f 196/2/3 194/2/3 191/2/3
f 197/2/3 194/2/3 196/2/3
f 199/2/3 187/2/3 185/2/3
f 199/2/3 196/2/3 187/2/3
f 200/2/3 196/2/3 199/2/3
f 202/2/3 199/2/3 198/2/3
f 203/2/3 199/2/3 202/2/3
f 204/2/3 202/2/3 201/2/3
f 205/2/3 202/2/3 204/2/3
f 206/2/3 202/2/3 205/2/3
f 207/2/3 202/2/3 206/2/3
f 208/2/3 202/2/3 207/2/3
f 209/2/3 202/2/3 208/2/3
f 210/2/3 202/2/3 209/2/3
f 211/2/3 202/2/3 210/2/3
f 214/2/3 213/2/3 212/2/3
f 215/2/3 213/2/3 214/2/3
f 217/2/3 216/2/3 215/2/3
f 218/2/3 216/2/3 217/2/3
f 220/2/3 219/2/3 218/2/3
f 221/2/3 219/2/3 220/2/3
f 223/2/3 222/2/3 221/2/3
f 224/2/3 222/2/3 223/2/3
f 227/2/3 225/2/3 224/2/3
f 228/2/3 225/2/3 227/2/3
f 232/2/3 227/2/3 226/2/3
f 233/2/3 227/2/3 232/2/3
f 235/3/3 230/3/3 229/3/3
f 236/3/3 230/3/3 235/3/3
f 237/2/3 232/2/3 231/2/3
f 238/2/3 232/2/3 237/2/3
f 240/4/3 235/4/3 234/4/3
f 241/2/3 237/2/3 236/2/3
f 242/2/3 237/2/3 241/2/3
f 245/3/3 240/3/3 239/3/3
f 246/4/3 235/4/3 240/4/3
f 246/3/3 240/3/3 245/3/3
f 247/4/3 235/4/3 246/4/3
f 249/4/3 244/4/3 243/4/3
f 250/4/3 244/4/3 249/4/3
f 253/4/3 251/4/3 250/4/3
f 254/3/3 252/3/3 251/3/3
f 254/4/3 251/4/3 253/4/3
f 255/3/3 252/3/3 254/3/3
f 257/4/3 255/4/3 254/4/3
f 258/3/3 256/3/3 255/3/3
f 258/4/3 255/4/3 257/4/3
f 259/3/3 256/3/3 258/3/3
f 261/3/3 260/3/3 259/3/3
f 262/3/3 260/3/3 261/3/3
f 263/4/3 262/4/3 261/4/3
f 264/4/3 262/4/3 263/4/3
f 265/2/3 248/2/3 247/2/3
f 266/2/3 248/2/3 265/2/3
f 267/3/3 264/3/3 263/3/3
f 268/2/3 265/2/3 264/2/3
f 268/3/3 264/3/3 267/3/3
f 269/2/3 265/2/3 268/2/3
f 270/2/3 265/2/3 269/2/3
f 271/2/3 265/2/3 270/2/3
f 272/2/3 265/2/3 271/2/3
f 273/4/3 269/4/3 268/4/3
f 274/4/3 269/4/3 273/4/3
f 275/2/3 271/2/3 270/2/3
f 276/2/3 271/2/3 275/2/3
f 277/2/4 278/2/4 279/2/4
f 279/2/4 278/2/4 280/2/4
f 280/2/4 281/2/4 282/2/4
f 282/2/4 281/2/4 283/2/4
f 283/2/4 284/2/4 285/2/4
f 285/2/4 284/2/4 286/2/4
f 286/2/4 287/2/4 288/2/4
f 288/2/4 287/2/4 289/2/4
f 289/2/4 290/2/4 292/2/4
f 292/2/4 290/2/4 293/2/4
f 291/2/4 292/2/4 297/2/4
f 297/2/4 292/2/4 298/2/4
f 294/3/4 295/3/4 300/3/4
f 300/3/4 295/3/4 301/3/4
f 296/2/4 297/2/4 302/2/4
f 302/2/4 297/2/4 303/2/4
f 299/4/4 300/4/4 305/4/4
f 301/2/4 302/2/4 306/2/4
f 306/2/4 302/2/4 307/2/4
f 304/3/4 305/3/4 310/3/4
f 305/4/4 300/4/4 311/4/4
f 310/3/4 305/3/4 311/3/4
f 311/4/4 300/4/4 312/4/4
f 308/4/4 309/4/4 314/4/4
f 314/4/4 309/4/4 315/4/4
f 315/4/4 316/4/4 318/4/4
f 316/3/4 317/3/4 319/3/4
f 318/4/4 316/4/4 319/4/4
f 319/3/4 317/3/4 320/3/4
f 319/4/4 320/4/4 322/4/4
f 320/3/4 321/3/4 323/3/4
f 322/4/4 320/4/4 323/4/4
f 323/3/4 321/3/4 324/3/4
f 324/3/4 325/3/4 326/3/4
f 326/3/4 325/3/4 327/3/4
f 326/4/4 327/4/4 328/4/4
f 328/4/4 327/4/4 329/4/4
f 312/2/4 313/2/4 330/2/4
f 330/2/4 313/2/4 331/2/4
f 328/3/4 329/3/4 332/3/4
f 329/2/4 330/2/4 333/2/4
f 332/3/4 329/3/4 333/3/4
f 333/2/4 330/2/4 334/2/4
f 334/2/4 330/2/4 335/2/4
f 335/2/4 330/2/4 336/2/4
f 336/2/4 330/2/4 337/2/4
f 333/4/4 334/4/4 338/4/4
f 338/4/4 334/4/4 339/4/4
f 335/2/4 336/2/4 340/2/4
f 340/2/4 336/2/4 341/2/4
f 342/2/4 343/2/4 344/2/4
f 344/2/4 345/2/4 346/2/4
f 344/2/4 346/2/4 348/2/4
f 346/1/4 347/1/4 348/1/4
f 348/1/4 347/1/4 349/1/4
f 348/2/4 349/2/4 351/2/4
f 349/2/4 350/2/4 351/2/4
f 351/2/4 350/2/4 352/2/4
f 344/2/4 348/2/4 353/2/4
f 348/2/4 351/2/4 353/2/4
f 353/2/4 351/2/4 354/2/4
f 342/2/4 344/2/4 356/2/4
f 344/2/4 353/2/4 356/2/4
f 356/2/4 353/2/4 357/2/4
f 355/2/4 356/2/4 359/2/4
f 359/2/4 356/2/4 360/2/4
f 358/2/4 359/2/4 361/2/4
f 361/2/4 359/2/4 362/2/4
f 362/2/4 359/2/4 363/2/4
f 363/2/4 359/2/4 364/2/4
f 364/2/4 359/2/4 365/2/4
f 365/2/4 359/2/4 366/2/4
f 366/2/4 359/2/4 367/2/4
f 367/2/4 359/2/4 368/2/4
f 371/4/5 370/4/5 369/4/5
f 372/4/5 370/4/5 371/4/5
f 375/2/5 374/2/5 373/2/5
f 376/2/5 374/2/5 375/2/5
f 379/4/5 377/4/5 376/4/5
f 380/4/5 377/4/5 379/4/5
f 381/2/5 379/2/5 378/2/5
f 382/2/5 379/2/5 381/2/5
f 385/4/5 384/4/5 383/4/5
f 386/4/5 384/4/5 385/4/5
f 389/2/5 388/2/5 387/2/5
f 390/2/5 388/2/5 389/2/5
f 393/2/5 392/2/5 391/2/5
f 394/2/5 392/2/5 393/2/5
f 397/2/5 396/2/5 395/2/5
f 398/2/5 396/2/5 397/2/5
f 403/3/5 399/3/5 398/3/5
f 404/4/5 400/4/5 399/4/5
f 404/3/5 399/3/5 403/3/5
f 405/3/5 401/3/5 400/3/5
f 405/4/5 400/4/5 404/4/5
f 406/3/5 401/3/5 405/3/5
f 407/2/5 403/2/5 402/2/5
f 408/2/5 403/2/5 407/2/5
f 411/2/5 410/2/5 409/2/5
f 412/2/5 410/2/5 411/2/5
f 413/2/5 410/2/5 412/2/5
f 419/4/5 415/4/5 414/4/5
f 420/4/5 415/4/5 419/4/5
f 421/2/5 418/2/5 417/2/5
f 421/2/5 417/2/5 416/2/5
f 422/2/5 418/2/5 421/2/5
f 427/3/5 424/3/5 423/3/5
f 428/3/5 424/3/5 427/3/5
f 429/2/5 426/2/5 425/2/5
f 430/2/5 426/2/5 429/2/5
f 433/4/5 432/4/5 431/4/5
f 434/4/5 432/4/5 433/4/5
f 438/2/5 436/2/5 435/2/5
f 439/2/5 436/2/5 438/2/5
f 440/3/5 438/3/5 437/3/5
f 441/3/5 438/3/5 440/3/5
f 443/2/5 442/2/5 441/2/5
f 444/2/5 442/2/5 443/2/5
f 448/2/5 446/2/5 445/2/5
f 449/2/5 446/2/5 448/2/5
f 450/2/5 446/2/5 449/2/5
f 451/2/5 448/2/5 447/2/5
f 451/2/5 449/2/5 448/2/5
f 452/2/5 449/2/5 451/2/5
f 453/2/5 449/2/5 452/2/5
f 455/2/5 454/2/5 453/2/5
f 455/2/5 453/2/5 452/2/5
f 456/2/5 454/2/5 455/2/5
f 457/4/6 458/4/6 459/4/6
f 459/4/6 458/4/6 460/4/6
f 461/2/6 462/2/6 463/2/6
f 463/2/6 462/2/6 464/2/6
f 465/2/6 466/2/6 467/2/6
f 467/2/6 466/2/6 468/2/6
f 468/2/6 469/2/6 471/2/6
f 471/2/6 469/2/6 472/2/6
f 470/2/6 471/2/6 473/2/6
f 473/2/6 471/2/6 474/2/6
f 475/2/6 476/2/6 477/2/6
f 477/2/6 476/2/6 478/2/6
f 478/2/6 476/2/6 479/2/6
f 479/2/6 480/2/6 482/2/6
f 478/2/6 479/2/6 482/2/6
f 482/2/6 480/2/6 483/2/6
f 483/2/6 480/2/6 484/2/6
f 481/2/6 482/2/6 485/2/6
f 482/2/6 483/2/6 485/2/6
f 485/2/6 483/2/6 486/2/6
f 487/2/6 488/2/6 490/2/6
f 490/2/6 488/2/6 491/2/6
f 489/2/6 490/2/6 492/2/6
f 492/2/6 490/2/6 493/2/6
f 493/2/6 494/2/6 495/2/6
f 495/2/6 494/2/6 496/2/6
f 497/2/6 498/2/6 502/2/6
f 502/2/6 498/2/6 503/2/6
f 499/2/6 500/2/6 504/2/6
f 504/2/6 500/2/6 505/2/6
f 501/2/6 502/2/6 507/2/6
f 507/2/6 502/2/6 508/2/6
f 505/2/6 506/2/6 511/2/6
f 511/2/6 506/2/6 512/2/6
f 508/2/6 509/2/6 513/2/6
f 513/2/6 509/2/6 514/2/6
f 510/2/6 511/2/6 515/2/6
f 515/2/6 511/2/6 516/2/6
f 517/1/6 518/1/6 522/1/6
f 522/1/6 518/1/6 523/1/6
f 519/2/6 520/2/6 524/2/6
f 524/2/6 520/2/6 525/2/6
f 521/2/6 522/2/6 527/2/6
f 527/2/6 522/2/6 528/2/6
f 525/2/6 526/2/6 531/2/6
f 531/2/6 526/2/6 532/2/6
f 528/1/6 529/1/6 533/1/6
f 533/1/6 529/1/6 534/1/6
f 530/2/6 531/2/6 535/2/6
f 535/2/6 531/2/6 536/2/6
f 537/2/6 538/2/6 540/2/6
f 540/2/6 538/2/6 541/2/6
f 539/2/6 540/2/6 543/2/6
f 543/2/6 540/2/6 544/2/6
f 541/2/6 542/2/6 545/2/6
f 545/2/6 542/2/6 546/2/6
f 544/2/6 545/2/6 547/2/6
f 547/2/6 545/2/6 548/2/6
f 549/2/6 550/2/6 551/2/6
f 551/2/6 550/2/6 552/2/6
