# MagicaVoxel @ Ephtracy

# group
o 

# material
mtllib cube-test.mtl
usemtl palette

# normals
vn -1 0 0
vn 1 0 0
vn 0 0 1
vn 0 0 -1
vn 0 -1 0
vn 0 1 0

# texcoords
vt 0.251953 0.5
vt 0.255859 0.5
vt 0.259766 0.5
vt 0.263672 0.5
vt 0.267578 0.5
vt 0.271484 0.5
vt 0.294922 0.5
vt 0.298828 0.5
vt 0.302734 0.5
vt 0.306641 0.5
vt 0.310547 0.5

# verts
v -0.5 0 0.5
v -0.5 0 -0.5
v -0.5 1 0.5
v -0.5 1 -0.5
v 0.5 0 0.5
v 0.5 0 -0.5
v 0.5 1 0.5
v 0.5 1 -0.5
v -0.5 0 0.5
v -0.5 1 0.5
v -0.4 0 0.5
v -0.4 1 0.5
v -0.3 0 0.5
v -0.3 1 0.5
v -0.2 0 0.5
v -0.2 1 0.5
v -0.1 0 0.5
v -0.1 1 0.5
v 0 0 0.5
v 0 1 0.5
v 0.1 0 0.5
v 0.1 1 0.5
v 0.2 0 0.5
v 0.2 1 0.5
v 0.3 0 0.5
v 0.3 1 0.5
v 0.4 0 0.5
v 0.4 1 0.5
v 0.5 0 0.5
v 0.5 1 0.5
v -0.5 0 -0.5
v -0.5 1 -0.5
v -0.4 0 -0.5
v -0.4 1 -0.5
v -0.3 0 -0.5
v -0.3 1 -0.5
v -0.2 0 -0.5
v -0.2 1 -0.5
v -0.1 0 -0.5
v -0.1 1 -0.5
v 0 0 -0.5
v 0 1 -0.5
v 0.1 0 -0.5
v 0.1 1 -0.5
v 0.2 0 -0.5
v 0.2 1 -0.5
v 0.3 0 -0.5
v 0.3 1 -0.5
v 0.4 0 -0.5
v 0.4 1 -0.5
v 0.5 0 -0.5
v 0.5 1 -0.5
v -0.5 0 0.5
v -0.4 0 0.5
v -0.3 0 0.5
v -0.2 0 0.5
v -0.1 0 0.5
v 0 0 0.5
v 0.1 0 0.5
v 0.2 0 0.5
v 0.3 0 0.5
v 0.4 0 0.5
v 0.5 0 0.5
v -0.5 0 -0.5
v -0.4 0 -0.5
v -0.3 0 -0.5
v -0.2 0 -0.5
v -0.1 0 -0.5
v 0 0 -0.5
v 0.1 0 -0.5
v 0.2 0 -0.5
v 0.3 0 -0.5
v 0.4 0 -0.5
v 0.5 0 -0.5
v -0.5 1 0.5
v -0.4 1 0.5
v -0.3 1 0.5
v -0.2 1 0.5
v -0.1 1 0.5
v 0 1 0.5
v 0.1 1 0.5
v 0.2 1 0.5
v 0.3 1 0.5
v 0.4 1 0.5
v 0.5 1 0.5
v -0.5 1 -0.5
v -0.4 1 -0.5
v -0.3 1 -0.5
v -0.2 1 -0.5
v -0.1 1 -0.5
v 0 1 -0.5
v 0.1 1 -0.5
v 0.2 1 -0.5
v 0.3 1 -0.5
v 0.4 1 -0.5
v 0.5 1 -0.5

# faces
f 3/7/1 2/7/1 1/7/1
f 4/7/1 2/7/1 3/7/1
f 5/6/2 6/6/2 7/6/2
f 7/6/2 6/6/2 8/6/2
f 11/7/3 10/7/3 9/7/3
f 12/7/3 10/7/3 11/7/3
f 13/8/3 12/8/3 11/8/3
f 14/8/3 12/8/3 13/8/3
f 15/9/3 14/9/3 13/9/3
f 16/9/3 14/9/3 15/9/3
f 17/11/3 16/11/3 15/11/3
f 18/11/3 16/11/3 17/11/3
f 19/1/3 18/1/3 17/1/3
f 20/1/3 18/1/3 19/1/3
f 21/2/3 20/2/3 19/2/3
f 22/2/3 20/2/3 21/2/3
f 23/3/3 22/3/3 21/3/3
f 24/3/3 22/3/3 23/3/3
f 25/4/3 24/4/3 23/4/3
f 26/4/3 24/4/3 25/4/3
f 27/5/3 26/5/3 25/5/3
f 28/5/3 26/5/3 27/5/3
f 29/6/3 28/6/3 27/6/3
f 30/6/3 28/6/3 29/6/3
f 31/7/4 32/7/4 33/7/4
f 33/7/4 32/7/4 34/7/4
f 33/8/4 34/8/4 35/8/4
f 35/8/4 34/8/4 36/8/4
f 35/9/4 36/9/4 37/9/4
f 37/9/4 36/9/4 38/9/4
f 37/11/4 38/11/4 39/11/4
f 39/11/4 38/11/4 40/11/4
f 39/1/4 40/1/4 41/1/4
f 41/1/4 40/1/4 42/1/4
f 41/2/4 42/2/4 43/2/4
f 43/2/4 42/2/4 44/2/4
f 43/3/4 44/3/4 45/3/4
f 45/3/4 44/3/4 46/3/4
f 45/4/4 46/4/4 47/4/4
f 47/4/4 46/4/4 48/4/4
f 47/5/4 48/5/4 49/5/4
f 49/5/4 48/5/4 50/5/4
f 49/6/4 50/6/4 51/6/4
f 51/6/4 50/6/4 52/6/4
f 64/7/5 54/7/5 53/7/5
f 65/8/5 55/8/5 54/8/5
f 65/7/5 54/7/5 64/7/5
f 66/9/5 56/9/5 55/9/5
f 66/8/5 55/8/5 65/8/5
f 67/11/5 57/11/5 56/11/5
f 67/9/5 56/9/5 66/9/5
f 68/1/5 58/1/5 57/1/5
f 68/11/5 57/11/5 67/11/5
f 69/2/5 59/2/5 58/2/5
f 69/1/5 58/1/5 68/1/5
f 70/3/5 60/3/5 59/3/5
f 70/2/5 59/2/5 69/2/5
f 71/4/5 61/4/5 60/4/5
f 71/3/5 60/3/5 70/3/5
f 72/5/5 62/5/5 61/5/5
f 72/4/5 61/4/5 71/4/5
f 73/6/5 63/6/5 62/6/5
f 73/5/5 62/5/5 72/5/5
f 74/6/5 63/6/5 73/6/5
f 75/7/6 76/7/6 86/7/6
f 76/8/6 77/8/6 87/8/6
f 86/7/6 76/7/6 87/7/6
f 77/9/6 78/9/6 88/9/6
f 87/8/6 77/8/6 88/8/6
f 78/11/6 79/11/6 89/11/6
f 88/9/6 78/9/6 89/9/6
f 79/1/6 80/1/6 90/1/6
f 89/11/6 79/11/6 90/11/6
f 80/2/6 81/2/6 91/2/6
f 90/1/6 80/1/6 91/1/6
f 81/3/6 82/3/6 92/3/6
f 91/2/6 81/2/6 92/2/6
f 82/4/6 83/4/6 93/4/6
f 92/3/6 82/3/6 93/3/6
f 83/5/6 84/5/6 94/5/6
f 93/4/6 83/4/6 94/4/6
f 84/6/6 85/6/6 95/6/6
f 94/5/6 84/5/6 95/5/6
f 95/6/6 85/6/6 96/6/6
