# MagicaVoxel @ Ephtracy

# group
o 

# material
mtllib dino-hit.mtl
usemtl palette

# normals
vn -1 0 0
vn 1 0 0
vn 0 0 1
vn 0 0 -1
vn 0 -1 0
vn 0 1 0

# texcoords
vt 0.00195312 0.5
vt 0.0253906 0.5
vt 0.0371094 0.5
vt 0.0605469 0.5
vt 0.0761719 0.5
vt 0.0800781 0.5
vt 0.150391 0.5
vt 0.166016 0.5
vt 0.201172 0.5
vt 0.212891 0.5
vt 0.294922 0.5
vt 0.306641 0.5
vt 0.958984 0.5
vt 0.994141 0.5

# verts
v -0.6 1.5 0
v -0.6 1.5 -0.1
v -0.6 1.6 0
v -0.6 1.6 -0.1
v -0.5 1.3 0
v -0.5 1.3 -0.1
v -0.5 1.5 0
v -0.5 1.5 -0.1
v -0.5 1.6 0
v -0.5 1.6 -0.1
v -0.5 2.2 0
v -0.5 2.2 -0.1
v -0.4 1.4 0.1
v -0.4 1.4 0
v -0.4 1.4 -0.1
v -0.4 1.4 -0.2
v -0.4 2.2 0.1
v -0.4 2.2 0
v -0.4 2.2 -0.1
v -0.4 2.2 -0.2
v -0.3 0.9 0
v -0.3 0.9 -0.1
v -0.3 1 0
v -0.3 1 -0.1
v -0.2 1 0
v -0.2 1 -0.1
v -0.2 1.3 0
v -0.2 1.3 -0.1
v -0.2 2.2 0
v -0.2 2.2 -0.1
v -0.2 2.4 0.1
v -0.2 2.4 0
v -0.2 2.4 -0.1
v -0.2 2.4 -0.2
v -0.2 3 0.1
v -0.2 3 0
v -0.2 3 -0.1
v -0.2 3 -0.2
v -0.2 3.1 0
v -0.2 3.1 -0.1
v -0.1 3 0.1
v -0.1 3 0
v -0.1 3 -0.1
v -0.1 3 -0.2
v -0.1 3.1 0.1
v -0.1 3.1 0
v -0.1 3.1 -0.1
v -0.1 3.1 -0.2
v 0.1 0.9 0
v 0.1 0.9 -0.1
v 0.1 1.3 0
v 0.1 1.3 -0.1
v -0.1 0.9 0
v -0.1 0.9 -0.1
v -0.1 1.3 0
v -0.1 1.3 -0.1
v -5.96046e-08 2.2 0
v -5.96046e-08 2.2 -0.1
v -5.96046e-08 2.4 0
v -5.96046e-08 2.4 -0.1
v 0.1 2.5 0.1
v 0.1 2.5 -0.2
v 0.1 2.6 0.1
v 0.1 2.6 -0.2
v 0.2 1 0
v 0.2 1 -0.1
v 0.2 1.3 0
v 0.2 1.3 -0.1
v 0.3 0.9 0
v 0.3 0.9 -0.1
v 0.3 1 0
v 0.3 1 -0.1
v 0.3 2.1 0.1
v 0.3 2.1 -0.2
v 0.3 2.2 0.1
v 0.3 2.2 -0.2
v 0.4 1.3 0
v 0.4 1.3 -0.1
v 0.4 1.4 0.1
v 0.4 1.4 0
v 0.4 1.4 -0.1
v 0.4 1.4 -0.2
v 0.4 2 0.1
v 0.4 2 0
v 0.4 2 -0.1
v 0.4 2 -0.2
v 0.4 2.1 0
v 0.4 2.1 -0.1
v 0.4 3 0.1
v 0.4 3 0
v 0.4 3 -0.1
v 0.4 3 -0.2
v 0.4 3.1 0.1
v 0.4 3.1 0
v 0.4 3.1 -0.1
v 0.4 3.1 -0.2
v 0.5 2.4 0.1
v 0.5 2.4 -0.2
v 0.5 2.5 0.1
v 0.5 2.5 -0.2
v 0.5 3 0
v 0.5 3 -0.1
v 0.5 3.1 0
v 0.5 3.1 -0.1
v 0.6 2 0.1
v 0.6 2 0
v 0.6 2 -0.1
v 0.6 2 -0.2
v 0.6 2.1 0.1
v 0.6 2.1 0
v 0.6 2.1 -0.1
v 0.6 2.1 -0.2
v 0.6 2.6 0.1
v 0.6 2.6 -0.2
v 0.6 3 0.1
v 0.6 3 -0.2
v -0.4 1.4 0.1
v -0.4 2.2 0.1
v -0.3 1.4 0.1
v -0.3 2.2 0.1
v -0.2 1.4 0.1
v -0.2 2.2 0.1
v -0.2 2.4 0.1
v -0.2 3 0.1
v -0.1 1.4 0.1
v -0.1 2.2 0.1
v -0.1 2.4 0.1
v -0.1 3 0.1
v -0.1 3.1 0.1
v -5.96046e-08 1.4 0.1
v -5.96046e-08 2.2 0.1
v -5.96046e-08 2.4 0.1
v -5.96046e-08 3.1 0.1
v 0.1 1.4 0.1
v 0.1 2.2 0.1
v 0.1 2.4 0.1
v 0.1 2.5 0.1
v 0.1 2.6 0.1
v 0.1 2.7 0.1
v 0.1 3 0.1
v 0.1 3.1 0.1
v 0.2 1.4 0.1
v 0.2 2.2 0.1
v 0.2 2.4 0.1
v 0.2 2.5 0.1
v 0.2 2.6 0.1
v 0.2 2.7 0.1
v 0.2 2.8 0.1
v 0.2 2.9 0.1
v 0.2 3 0.1
v 0.2 3.1 0.1
v 0.3 1.4 0.1
v 0.3 2.1 0.1
v 0.3 2.2 0.1
v 0.3 2.4 0.1
v 0.3 2.5 0.1
v 0.3 2.6 0.1
v 0.3 2.7 0.1
v 0.3 2.8 0.1
v 0.3 2.9 0.1
v 0.3 3 0.1
v 0.3 3.1 0.1
v 0.4 1.4 0.1
v 0.4 2 0.1
v 0.4 2.1 0.1
v 0.4 2.4 0.1
v 0.4 2.5 0.1
v 0.4 2.6 0.1
v 0.4 2.7 0.1
v 0.4 3 0.1
v 0.4 3.1 0.1
v 0.5 2 0.1
v 0.5 2.1 0.1
v 0.5 2.4 0.1
v 0.5 2.5 0.1
v 0.5 2.6 0.1
v 0.5 3 0.1
v 0.6 2 0.1
v 0.6 2.1 0.1
v 0.6 2.6 0.1
v 0.6 3 0.1
v -0.6 1.5 0
v -0.6 1.6 0
v -0.5 1.3 0
v -0.5 1.5 0
v -0.5 1.6 0
v -0.5 2.2 0
v -0.4 1.3 0
v -0.4 1.4 0
v -0.4 2.2 0
v -0.3 0.9 0
v -0.3 1 0
v -0.3 1.3 0
v -0.3 1.4 0
v -0.2 1 0
v -0.2 1.3 0
v -0.2 1.4 0
v -0.2 2.2 0
v -0.2 2.4 0
v -0.2 3 0
v -0.2 3.1 0
v -0.1 0.9 0
v -0.1 1.3 0
v -0.1 1.4 0
v -0.1 2.2 0
v -0.1 2.4 0
v -0.1 3 0
v -0.1 3.1 0
v -5.96046e-08 1.3 0
v -5.96046e-08 1.4 0
v -5.96046e-08 2.2 0
v -5.96046e-08 2.4 0
v 0.1 0.9 0
v 0.1 1.3 0
v 0.1 1.4 0
v 0.2 1 0
v 0.2 1.3 0
v 0.2 1.4 0
v 0.3 0.9 0
v 0.3 1 0
v 0.3 1.3 0
v 0.3 1.4 0
v 0.4 1.3 0
v 0.4 1.4 0
v 0.4 3 0
v 0.4 3.1 0
v 0.5 3 0
v 0.5 3.1 0
v 0.4 2 -0.1
v 0.4 2.1 -0.1
v 0.5 2 -0.1
v 0.5 2.1 -0.1
v 0.6 2 -0.1
v 0.6 2.1 -0.1
v 0.4 2 0
v 0.4 2.1 0
v 0.5 2 0
v 0.5 2.1 0
v 0.6 2 0
v 0.6 2.1 0
v -0.6 1.5 -0.1
v -0.6 1.6 -0.1
v -0.5 1.3 -0.1
v -0.5 1.5 -0.1
v -0.5 1.6 -0.1
v -0.5 2.2 -0.1
v -0.4 1.3 -0.1
v -0.4 1.4 -0.1
v -0.4 2.2 -0.1
v -0.3 0.9 -0.1
v -0.3 1 -0.1
v -0.3 1.3 -0.1
v -0.3 1.4 -0.1
v -0.2 1 -0.1
v -0.2 1.3 -0.1
v -0.2 1.4 -0.1
v -0.2 2.2 -0.1
v -0.2 2.4 -0.1
v -0.2 3 -0.1
v -0.2 3.1 -0.1
v -0.1 0.9 -0.1
v -0.1 1.3 -0.1
v -0.1 1.4 -0.1
v -0.1 2.2 -0.1
v -0.1 2.4 -0.1
v -0.1 3 -0.1
v -0.1 3.1 -0.1
v -5.96046e-08 1.3 -0.1
v -5.96046e-08 1.4 -0.1
v -5.96046e-08 2.2 -0.1
v -5.96046e-08 2.4 -0.1
v 0.1 0.9 -0.1
v 0.1 1.3 -0.1
v 0.1 1.4 -0.1
v 0.2 1 -0.1
v 0.2 1.3 -0.1
v 0.2 1.4 -0.1
v 0.3 0.9 -0.1
v 0.3 1 -0.1
v 0.3 1.3 -0.1
v 0.3 1.4 -0.1
v 0.4 1.3 -0.1
v 0.4 1.4 -0.1
v 0.4 3 -0.1
v 0.4 3.1 -0.1
v 0.5 3 -0.1
v 0.5 3.1 -0.1
v -0.4 1.4 -0.2
v -0.4 2.2 -0.2
v -0.3 1.4 -0.2
v -0.3 2.2 -0.2
v -0.2 1.4 -0.2
v -0.2 2.2 -0.2
v -0.2 2.4 -0.2
v -0.2 3 -0.2
v -0.1 1.4 -0.2
v -0.1 2.2 -0.2
v -0.1 2.4 -0.2
v -0.1 3 -0.2
v -0.1 3.1 -0.2
v -5.96046e-08 1.4 -0.2
v -5.96046e-08 2.2 -0.2
v -5.96046e-08 2.4 -0.2
v -5.96046e-08 3.1 -0.2
v 0.1 1.4 -0.2
v 0.1 2.2 -0.2
v 0.1 2.4 -0.2
v 0.1 2.5 -0.2
v 0.1 2.6 -0.2
v 0.1 2.7 -0.2
v 0.1 3 -0.2
v 0.1 3.1 -0.2
v 0.2 1.4 -0.2
v 0.2 2.2 -0.2
v 0.2 2.4 -0.2
v 0.2 2.5 -0.2
v 0.2 2.6 -0.2
v 0.2 2.7 -0.2
v 0.2 2.8 -0.2
v 0.2 2.9 -0.2
v 0.2 3 -0.2
v 0.2 3.1 -0.2
v 0.3 1.4 -0.2
v 0.3 2.1 -0.2
v 0.3 2.2 -0.2
v 0.3 2.4 -0.2
v 0.3 2.5 -0.2
v 0.3 2.6 -0.2
v 0.3 2.7 -0.2
v 0.3 2.8 -0.2
v 0.3 2.9 -0.2
v 0.3 3 -0.2
v 0.3 3.1 -0.2
v 0.4 1.4 -0.2
v 0.4 2 -0.2
v 0.4 2.1 -0.2
v 0.4 2.4 -0.2
v 0.4 2.5 -0.2
v 0.4 2.6 -0.2
v 0.4 2.7 -0.2
v 0.4 3 -0.2
v 0.4 3.1 -0.2
v 0.5 2 -0.2
v 0.5 2.1 -0.2
v 0.5 2.4 -0.2
v 0.5 2.5 -0.2
v 0.5 2.6 -0.2
v 0.5 3 -0.2
v 0.6 2 -0.2
v 0.6 2.1 -0.2
v 0.6 2.6 -0.2
v 0.6 3 -0.2
v -0.3 0.9 0
v -0.1 0.9 0
v 0.1 0.9 0
v 0.3 0.9 0
v -0.3 0.9 -0.1
v -0.1 0.9 -0.1
v 0.1 0.9 -0.1
v 0.3 0.9 -0.1
v -0.5 1.3 0
v -0.4 1.3 0
v -0.3 1.3 0
v -0.2 1.3 0
v -0.1 1.3 0
v -5.96046e-08 1.3 0
v 0.1 1.3 0
v 0.2 1.3 0
v 0.3 1.3 0
v 0.4 1.3 0
v -0.5 1.3 -0.1
v -0.4 1.3 -0.1
v -0.3 1.3 -0.1
v -0.2 1.3 -0.1
v -0.1 1.3 -0.1
v -5.96046e-08 1.3 -0.1
v 0.1 1.3 -0.1
v 0.2 1.3 -0.1
v 0.3 1.3 -0.1
v 0.4 1.3 -0.1
v -0.4 1.4 0.1
v -0.3 1.4 0.1
v -0.2 1.4 0.1
v -0.1 1.4 0.1
v -5.96046e-08 1.4 0.1
v 0.1 1.4 0.1
v 0.2 1.4 0.1
v 0.3 1.4 0.1
v 0.4 1.4 0.1
v -0.4 1.4 0
v -0.3 1.4 0
v -0.2 1.4 0
v -0.1 1.4 0
v -5.96046e-08 1.4 0
v 0.1 1.4 0
v 0.2 1.4 0
v 0.3 1.4 0
v 0.4 1.4 0
v -0.4 1.4 -0.1
v -0.3 1.4 -0.1
v -0.2 1.4 -0.1
v -0.1 1.4 -0.1
v -5.96046e-08 1.4 -0.1
v 0.1 1.4 -0.1
v 0.2 1.4 -0.1
v 0.3 1.4 -0.1
v 0.4 1.4 -0.1
v -0.4 1.4 -0.2
v -0.3 1.4 -0.2
v -0.2 1.4 -0.2
v -0.1 1.4 -0.2
v -5.96046e-08 1.4 -0.2
v 0.1 1.4 -0.2
v 0.2 1.4 -0.2
v 0.3 1.4 -0.2
v 0.4 1.4 -0.2
v -0.6 1.5 0
v -0.5 1.5 0
v -0.6 1.5 -0.1
v -0.5 1.5 -0.1
v 0.4 2 0.1
v 0.5 2 0.1
v 0.6 2 0.1
v 0.4 2 0
v 0.5 2 0
v 0.6 2 0
v 0.4 2 -0.1
v 0.5 2 -0.1
v 0.6 2 -0.1
v 0.4 2 -0.2
v 0.5 2 -0.2
v 0.6 2 -0.2
v -0.2 2.4 0.1
v -0.1 2.4 0.1
v -5.96046e-08 2.4 0.1
v 0.1 2.4 0.1
v 0.2 2.4 0.1
v 0.3 2.4 0.1
v 0.4 2.4 0.1
v 0.5 2.4 0.1
v -0.2 2.4 0
v -0.1 2.4 0
v -5.96046e-08 2.4 0
v -0.2 2.4 -0.1
v -0.1 2.4 -0.1
v -5.96046e-08 2.4 -0.1
v -0.2 2.4 -0.2
v -0.1 2.4 -0.2
v -5.96046e-08 2.4 -0.2
v 0.1 2.4 -0.2
v 0.2 2.4 -0.2
v 0.3 2.4 -0.2
v 0.4 2.4 -0.2
v 0.5 2.4 -0.2
v 0.1 2.6 0.1
v 0.2 2.6 0.1
v 0.3 2.6 0.1
v 0.4 2.6 0.1
v 0.5 2.6 0.1
v 0.6 2.6 0.1
v 0.1 2.6 -0.2
v 0.2 2.6 -0.2
v 0.3 2.6 -0.2
v 0.4 2.6 -0.2
v 0.5 2.6 -0.2
v 0.6 2.6 -0.2
v -0.3 1 0
v -0.2 1 0
v 0.2 1 0
v 0.3 1 0
v -0.3 1 -0.1
v -0.2 1 -0.1
v 0.2 1 -0.1
v 0.3 1 -0.1
v -0.6 1.6 0
v -0.5 1.6 0
v -0.6 1.6 -0.1
v -0.5 1.6 -0.1
v 0.3 2.1 0.1
v 0.4 2.1 0.1
v 0.5 2.1 0.1
v 0.6 2.1 0.1
v 0.4 2.1 0
v 0.5 2.1 0
v 0.6 2.1 0
v 0.4 2.1 -0.1
v 0.5 2.1 -0.1
v 0.6 2.1 -0.1
v 0.3 2.1 -0.2
v 0.4 2.1 -0.2
v 0.5 2.1 -0.2
v 0.6 2.1 -0.2
v -0.4 2.2 0.1
v -0.3 2.2 0.1
v -0.2 2.2 0.1
v -0.1 2.2 0.1
v -5.96046e-08 2.2 0.1
v 0.1 2.2 0.1
v 0.2 2.2 0.1
v 0.3 2.2 0.1
v -0.5 2.2 0
v -0.4 2.2 0
v -0.2 2.2 0
v -0.1 2.2 0
v -5.96046e-08 2.2 0
v -0.5 2.2 -0.1
v -0.4 2.2 -0.1
v -0.2 2.2 -0.1
v -0.1 2.2 -0.1
v -5.96046e-08 2.2 -0.1
v -0.4 2.2 -0.2
v -0.3 2.2 -0.2
v -0.2 2.2 -0.2
v -0.1 2.2 -0.2
v -5.96046e-08 2.2 -0.2
v 0.1 2.2 -0.2
v 0.2 2.2 -0.2
v 0.3 2.2 -0.2
v 0.1 2.5 0.1
v 0.2 2.5 0.1
v 0.3 2.5 0.1
v 0.4 2.5 0.1
v 0.5 2.5 0.1
v 0.1 2.5 -0.2
v 0.2 2.5 -0.2
v 0.3 2.5 -0.2
v 0.4 2.5 -0.2
v 0.5 2.5 -0.2
v -0.2 3 0.1
v -0.1 3 0.1
v 0.4 3 0.1
v 0.5 3 0.1
v 0.6 3 0.1
v -0.2 3 0
v -0.1 3 0
v 0.4 3 0
v 0.5 3 0
v -0.2 3 -0.1
v -0.1 3 -0.1
v 0.4 3 -0.1
v 0.5 3 -0.1
v -0.2 3 -0.2
v -0.1 3 -0.2
v 0.4 3 -0.2
v 0.5 3 -0.2
v 0.6 3 -0.2
v -0.1 3.1 0.1
v -5.96046e-08 3.1 0.1
v 0.1 3.1 0.1
v 0.2 3.1 0.1
v 0.3 3.1 0.1
v 0.4 3.1 0.1
v -0.2 3.1 0
v -0.1 3.1 0
v 0.4 3.1 0
v 0.5 3.1 0
v -0.2 3.1 -0.1
v -0.1 3.1 -0.1
v 0.4 3.1 -0.1
v 0.5 3.1 -0.1
v -0.1 3.1 -0.2
v -5.96046e-08 3.1 -0.2
v 0.1 3.1 -0.2
v 0.2 3.1 -0.2
v 0.3 3.1 -0.2
v 0.4 3.1 -0.2

# faces
f 3/12/1 2/12/1 1/12/1
f 4/12/1 2/12/1 3/12/1
f 7/12/1 6/12/1 5/12/1
f 8/12/1 6/12/1 7/12/1
f 11/12/1 10/12/1 9/12/1
f 12/12/1 10/12/1 11/12/1
f 17/8/1 14/8/1 13/8/1
f 18/8/1 14/8/1 17/8/1
f 19/8/1 16/8/1 15/8/1
f 20/8/1 16/8/1 19/8/1
f 23/10/1 22/10/1 21/10/1
f 24/10/1 22/10/1 23/10/1
f 27/10/1 26/10/1 25/10/1
f 28/10/1 26/10/1 27/10/1
f 32/10/1 30/10/1 29/10/1
f 33/10/1 30/10/1 32/10/1
f 35/10/1 33/10/1 32/10/1
f 35/10/1 34/10/1 33/10/1
f 35/10/1 32/10/1 31/10/1
f 36/10/1 34/10/1 35/10/1
f 37/10/1 34/10/1 36/10/1
f 38/10/1 34/10/1 37/10/1
f 39/10/1 37/10/1 36/10/1
f 40/10/1 37/10/1 39/10/1
f 45/2/1 42/2/1 41/2/1
f 46/2/1 42/2/1 45/2/1
f 47/2/1 44/2/1 43/2/1
f 48/2/1 44/2/1 47/2/1
f 51/6/1 50/6/1 49/6/1
f 52/6/1 50/6/1 51/6/1
f 53/10/2 54/10/2 55/10/2
f 55/10/2 54/10/2 56/10/2
f 57/2/2 58/2/2 59/2/2
f 59/2/2 58/2/2 60/2/2
f 61/5/2 62/5/2 63/5/2
f 63/5/2 62/5/2 64/5/2
f 65/6/2 66/6/2 67/6/2
f 67/6/2 66/6/2 68/6/2
f 69/6/2 70/6/2 71/6/2
f 71/6/2 70/6/2 72/6/2
f 73/4/2 74/4/2 75/4/2
f 75/4/2 74/4/2 76/4/2
f 77/3/2 78/3/2 80/3/2
f 80/3/2 78/3/2 81/3/2
f 79/3/2 80/3/2 83/3/2
f 81/3/2 82/3/2 83/3/2
f 80/3/2 81/3/2 83/3/2
f 83/3/2 82/3/2 84/3/2
f 84/3/2 82/3/2 85/3/2
f 85/3/2 82/3/2 86/3/2
f 84/3/2 85/3/2 87/3/2
f 87/3/2 85/3/2 88/3/2
f 89/3/2 90/3/2 93/3/2
f 93/3/2 90/3/2 94/3/2
f 91/3/2 92/3/2 95/3/2
f 95/3/2 92/3/2 96/3/2
f 97/7/2 98/7/2 99/7/2
f 99/7/2 98/7/2 100/7/2
f 101/7/2 102/7/2 103/7/2
f 103/7/2 102/7/2 104/7/2
f 105/11/2 106/11/2 109/11/2
f 109/11/2 106/11/2 110/11/2
f 107/11/2 108/11/2 111/11/2
f 111/11/2 108/11/2 112/11/2
f 113/11/2 114/11/2 115/11/2
f 115/11/2 114/11/2 116/11/2
f 119/8/3 118/8/3 117/8/3
f 120/8/3 118/8/3 119/8/3
f 121/9/3 120/9/3 119/9/3
f 122/9/3 120/9/3 121/9/3
f 125/10/3 122/10/3 121/10/3
f 126/10/3 122/10/3 125/10/3
f 127/10/3 124/10/3 123/10/3
f 128/10/3 124/10/3 127/10/3
f 130/2/3 126/2/3 125/2/3
f 131/2/3 126/2/3 130/2/3
f 132/2/3 129/2/3 128/2/3
f 132/2/3 128/2/3 127/2/3
f 133/2/3 129/2/3 132/2/3
f 134/5/3 131/5/3 130/5/3
f 135/5/3 131/5/3 134/5/3
f 136/5/3 133/5/3 132/5/3
f 137/5/3 133/5/3 136/5/3
f 138/5/3 133/5/3 137/5/3
f 139/5/3 133/5/3 138/5/3
f 140/5/3 133/5/3 139/5/3
f 141/5/3 133/5/3 140/5/3
f 142/6/3 135/6/3 134/6/3
f 143/6/3 135/6/3 142/6/3
f 144/6/3 137/6/3 136/6/3
f 145/6/3 137/6/3 144/6/3
f 146/6/3 139/6/3 138/6/3
f 147/1/3 140/1/3 139/1/3
f 147/6/3 139/6/3 146/6/3
f 148/1/3 140/1/3 147/1/3
f 149/1/3 140/1/3 148/1/3
f 150/6/3 141/6/3 140/6/3
f 150/1/3 140/1/3 149/1/3
f 151/6/3 141/6/3 150/6/3
f 152/4/3 143/4/3 142/4/3
f 153/4/3 143/4/3 152/4/3
f 154/4/3 143/4/3 153/4/3
f 155/4/3 145/4/3 144/4/3
f 156/4/3 145/4/3 155/4/3
f 157/4/3 147/4/3 146/4/3
f 158/1/3 148/1/3 147/1/3
f 158/4/3 147/4/3 157/4/3
f 159/14/3 149/14/3 148/14/3
f 159/1/3 148/1/3 158/1/3
f 160/1/3 150/1/3 149/1/3
f 160/14/3 149/14/3 159/14/3
f 161/4/3 151/4/3 150/4/3
f 161/1/3 150/1/3 160/1/3
f 162/4/3 151/4/3 161/4/3
f 163/3/3 153/3/3 152/3/3
f 164/3/3 153/3/3 163/3/3
f 165/3/3 153/3/3 164/3/3
f 166/3/3 156/3/3 155/3/3
f 167/3/3 156/3/3 166/3/3
f 168/3/3 158/3/3 157/3/3
f 169/1/3 159/1/3 158/1/3
f 169/3/3 158/3/3 168/3/3
f 169/1/3 160/1/3 159/1/3
f 169/1/3 161/1/3 160/1/3
f 170/3/3 162/3/3 161/3/3
f 170/1/3 161/1/3 169/1/3
f 171/3/3 162/3/3 170/3/3
f 172/7/3 165/7/3 164/7/3
f 173/7/3 165/7/3 172/7/3
f 174/7/3 167/7/3 166/7/3
f 175/7/3 167/7/3 174/7/3
f 176/7/3 169/7/3 168/7/3
f 176/7/3 170/7/3 169/7/3
f 177/7/3 170/7/3 176/7/3
f 178/11/3 173/11/3 172/11/3
f 179/11/3 173/11/3 178/11/3
f 180/11/3 177/11/3 176/11/3
f 181/11/3 177/11/3 180/11/3
f 185/12/3 183/12/3 182/12/3
f 186/12/3 183/12/3 185/12/3
f 188/12/3 185/12/3 184/12/3
f 188/12/3 187/12/3 186/12/3
f 188/12/3 186/12/3 185/12/3
f 189/12/3 187/12/3 188/12/3
f 190/12/3 187/12/3 189/12/3
f 193/8/3 189/8/3 188/8/3
f 194/8/3 189/8/3 193/8/3
f 195/10/3 192/10/3 191/10/3
f 196/9/3 194/9/3 193/9/3
f 197/9/3 194/9/3 196/9/3
f 202/10/3 197/10/3 196/10/3
f 202/10/3 196/10/3 195/10/3
f 202/10/3 195/10/3 191/10/3
f 203/10/3 197/10/3 202/10/3
f 204/10/3 197/10/3 203/10/3
f 205/10/3 199/10/3 198/10/3
f 206/10/3 199/10/3 205/10/3
f 207/10/3 201/10/3 200/10/3
f 208/10/3 201/10/3 207/10/3
f 209/2/3 204/2/3 203/2/3
f 210/2/3 204/2/3 209/2/3
f 211/2/3 206/2/3 205/2/3
f 212/2/3 206/2/3 211/2/3
f 214/5/3 210/5/3 209/5/3
f 215/5/3 210/5/3 214/5/3
f 216/6/3 214/6/3 213/6/3
f 216/6/3 215/6/3 214/6/3
f 217/6/3 215/6/3 216/6/3
f 218/6/3 215/6/3 217/6/3
f 219/6/3 216/6/3 213/6/3
f 220/6/3 216/6/3 219/6/3
f 221/4/3 218/4/3 217/4/3
f 222/4/3 218/4/3 221/4/3
f 223/3/3 222/3/3 221/3/3
f 224/3/3 222/3/3 223/3/3
f 227/7/3 226/7/3 225/7/3
f 228/7/3 226/7/3 227/7/3
f 231/7/3 230/7/3 229/7/3
f 232/7/3 230/7/3 231/7/3
f 233/11/3 232/11/3 231/11/3
f 234/11/3 232/11/3 233/11/3
f 235/7/4 236/7/4 237/7/4
f 237/7/4 236/7/4 238/7/4
f 237/11/4 238/11/4 239/11/4
f 239/11/4 238/11/4 240/11/4
f 241/12/4 242/12/4 244/12/4
f 244/12/4 242/12/4 245/12/4
f 243/12/4 244/12/4 247/12/4
f 245/12/4 246/12/4 247/12/4
f 244/12/4 245/12/4 247/12/4
f 247/12/4 246/12/4 248/12/4
f 248/12/4 246/12/4 249/12/4
f 247/8/4 248/8/4 252/8/4
f 252/8/4 248/8/4 253/8/4
f 250/10/4 251/10/4 254/10/4
f 252/9/4 253/9/4 255/9/4
f 255/9/4 253/9/4 256/9/4
f 255/10/4 256/10/4 261/10/4
f 254/10/4 255/10/4 261/10/4
f 250/10/4 254/10/4 261/10/4
f 261/10/4 256/10/4 262/10/4
f 262/10/4 256/10/4 263/10/4
f 257/10/4 258/10/4 264/10/4
f 264/10/4 258/10/4 265/10/4
f 259/10/4 260/10/4 266/10/4
f 266/10/4 260/10/4 267/10/4
f 262/2/4 263/2/4 268/2/4
f 268/2/4 263/2/4 269/2/4
f 264/2/4 265/2/4 270/2/4
f 270/2/4 265/2/4 271/2/4
f 268/5/4 269/5/4 273/5/4
f 273/5/4 269/5/4 274/5/4
f 272/6/4 273/6/4 275/6/4
f 273/6/4 274/6/4 275/6/4
f 275/6/4 274/6/4 276/6/4
f 276/6/4 274/6/4 277/6/4
f 272/6/4 275/6/4 278/6/4
f 278/6/4 275/6/4 279/6/4
f 276/4/4 277/4/4 280/4/4
f 280/4/4 277/4/4 281/4/4
f 280/3/4 281/3/4 282/3/4
f 282/3/4 281/3/4 283/3/4
f 284/7/4 285/7/4 286/7/4
f 286/7/4 285/7/4 287/7/4
f 288/8/4 289/8/4 290/8/4
f 290/8/4 289/8/4 291/8/4
f 290/9/4 291/9/4 292/9/4
f 292/9/4 291/9/4 293/9/4
f 292/10/4 293/10/4 296/10/4
f 296/10/4 293/10/4 297/10/4
f 294/10/4 295/10/4 298/10/4
f 298/10/4 295/10/4 299/10/4
f 296/2/4 297/2/4 301/2/4
f 301/2/4 297/2/4 302/2/4
f 299/2/4 300/2/4 303/2/4
f 298/2/4 299/2/4 303/2/4
f 303/2/4 300/2/4 304/2/4
f 301/5/4 302/5/4 305/5/4
f 305/5/4 302/5/4 306/5/4
f 303/5/4 304/5/4 307/5/4
f 307/5/4 304/5/4 308/5/4
f 308/5/4 304/5/4 309/5/4
f 309/5/4 304/5/4 310/5/4
f 310/5/4 304/5/4 311/5/4
f 311/5/4 304/5/4 312/5/4
f 305/6/4 306/6/4 313/6/4
f 313/6/4 306/6/4 314/6/4
f 307/6/4 308/6/4 315/6/4
f 315/6/4 308/6/4 316/6/4
f 309/6/4 310/6/4 317/6/4
f 310/13/4 311/13/4 318/13/4
f 317/6/4 310/6/4 318/6/4
f 318/13/4 311/13/4 319/13/4
f 319/13/4 311/13/4 320/13/4
f 311/6/4 312/6/4 321/6/4
f 320/13/4 311/13/4 321/13/4
f 321/6/4 312/6/4 322/6/4
f 313/4/4 314/4/4 323/4/4
f 323/4/4 314/4/4 324/4/4
f 324/4/4 314/4/4 325/4/4
f 315/4/4 316/4/4 326/4/4
f 326/4/4 316/4/4 327/4/4
f 317/4/4 318/4/4 328/4/4
f 318/13/4 319/13/4 329/13/4
f 328/4/4 318/4/4 329/4/4
f 319/14/4 320/14/4 330/14/4
f 329/13/4 319/13/4 330/13/4
f 320/13/4 321/13/4 331/13/4
f 330/14/4 320/14/4 331/14/4
f 321/4/4 322/4/4 332/4/4
f 331/13/4 321/13/4 332/13/4
f 332/4/4 322/4/4 333/4/4
f 323/3/4 324/3/4 334/3/4
f 334/3/4 324/3/4 335/3/4
f 335/3/4 324/3/4 336/3/4
f 326/3/4 327/3/4 337/3/4
f 337/3/4 327/3/4 338/3/4
f 328/3/4 329/3/4 339/3/4
f 329/13/4 330/13/4 340/13/4
f 339/3/4 329/3/4 340/3/4
f 330/13/4 331/13/4 340/13/4
f 331/13/4 332/13/4 340/13/4
f 332/3/4 333/3/4 341/3/4
f 340/13/4 332/13/4 341/13/4
f 341/3/4 333/3/4 342/3/4
f 335/7/4 336/7/4 343/7/4
f 343/7/4 336/7/4 344/7/4
f 337/7/4 338/7/4 345/7/4
f 345/7/4 338/7/4 346/7/4
f 339/7/4 340/7/4 347/7/4
f 340/7/4 341/7/4 347/7/4
f 347/7/4 341/7/4 348/7/4
f 343/11/4 344/11/4 349/11/4
f 349/11/4 344/11/4 350/11/4
f 347/11/4 348/11/4 351/11/4
f 351/11/4 348/11/4 352/11/4
f 357/10/5 354/10/5 353/10/5
f 358/10/5 354/10/5 357/10/5
f 359/6/5 356/6/5 355/6/5
f 360/6/5 356/6/5 359/6/5
f 371/12/5 362/12/5 361/12/5
f 372/8/5 363/8/5 362/8/5
f 372/12/5 362/12/5 371/12/5
f 373/9/5 364/9/5 363/9/5
f 373/8/5 363/8/5 372/8/5
f 374/9/5 364/9/5 373/9/5
f 375/2/5 366/2/5 365/2/5
f 376/5/5 367/5/5 366/5/5
f 376/2/5 366/2/5 375/2/5
f 377/5/5 367/5/5 376/5/5
f 378/4/5 369/4/5 368/4/5
f 379/3/5 370/3/5 369/3/5
f 379/4/5 369/4/5 378/4/5
f 380/3/5 370/3/5 379/3/5
f 390/8/5 382/8/5 381/8/5
f 391/9/5 383/9/5 382/9/5
f 391/8/5 382/8/5 390/8/5
f 392/10/5 384/10/5 383/10/5
f 392/9/5 383/9/5 391/9/5
f 393/2/5 385/2/5 384/2/5
f 393/10/5 384/10/5 392/10/5
f 394/5/5 386/5/5 385/5/5
f 394/2/5 385/2/5 393/2/5
f 395/6/5 387/6/5 386/6/5
f 395/5/5 386/5/5 394/5/5
f 396/4/5 388/4/5 387/4/5
f 396/6/5 387/6/5 395/6/5
f 397/3/5 389/3/5 388/3/5
f 397/4/5 388/4/5 396/4/5
f 398/3/5 389/3/5 397/3/5
f 408/8/5 400/8/5 399/8/5
f 409/9/5 401/9/5 400/9/5
f 409/8/5 400/8/5 408/8/5
f 410/10/5 402/10/5 401/10/5
f 410/9/5 401/9/5 409/9/5
f 411/2/5 403/2/5 402/2/5
f 411/10/5 402/10/5 410/10/5
f 412/5/5 404/5/5 403/5/5
f 412/2/5 403/2/5 411/2/5
f 413/6/5 405/6/5 404/6/5
f 413/5/5 404/5/5 412/5/5
f 414/4/5 406/4/5 405/4/5
f 414/6/5 405/6/5 413/6/5
f 415/3/5 407/3/5 406/3/5
f 415/4/5 406/4/5 414/4/5
f 416/3/5 407/3/5 415/3/5
f 419/12/5 418/12/5 417/12/5
f 420/12/5 418/12/5 419/12/5
f 424/7/5 422/7/5 421/7/5
f 425/11/5 423/11/5 422/11/5
f 425/7/5 422/7/5 424/7/5
f 426/11/5 423/11/5 425/11/5
f 430/7/5 428/7/5 427/7/5
f 431/11/5 429/11/5 428/11/5
f 431/7/5 428/7/5 430/7/5
f 432/11/5 429/11/5 431/11/5
f 441/10/5 434/10/5 433/10/5
f 442/2/5 435/2/5 434/2/5
f 442/10/5 434/10/5 441/10/5
f 443/5/5 436/5/5 435/5/5
f 443/2/5 435/2/5 442/2/5
f 446/5/5 436/5/5 443/5/5
f 447/10/5 445/10/5 444/10/5
f 448/2/5 446/2/5 445/2/5
f 448/10/5 445/10/5 447/10/5
f 449/5/5 436/5/5 446/5/5
f 449/2/5 446/2/5 448/2/5
f 450/6/5 437/6/5 436/6/5
f 450/5/5 436/5/5 449/5/5
f 451/4/5 438/4/5 437/4/5
f 451/6/5 437/6/5 450/6/5
f 452/3/5 439/3/5 438/3/5
f 452/4/5 438/4/5 451/4/5
f 453/7/5 440/7/5 439/7/5
f 453/3/5 439/3/5 452/3/5
f 454/7/5 440/7/5 453/7/5
f 461/6/5 456/6/5 455/6/5
f 462/4/5 457/4/5 456/4/5
f 462/6/5 456/6/5 461/6/5
f 463/3/5 458/3/5 457/3/5
f 463/4/5 457/4/5 462/4/5
f 464/7/5 459/7/5 458/7/5
f 464/3/5 458/3/5 463/3/5
f 465/11/5 460/11/5 459/11/5
f 465/7/5 459/7/5 464/7/5
f 466/11/5 460/11/5 465/11/5
f 467/10/6 468/10/6 471/10/6
f 471/10/6 468/10/6 472/10/6
f 469/6/6 470/6/6 473/6/6
f 473/6/6 470/6/6 474/6/6
f 475/12/6 476/12/6 477/12/6
f 477/12/6 476/12/6 478/12/6
f 479/3/6 480/3/6 483/3/6
f 480/7/6 481/7/6 483/7/6
f 481/11/6 482/11/6 484/11/6
f 483/7/6 481/7/6 484/7/6
f 484/11/6 482/11/6 485/11/6
f 479/3/6 483/3/6 486/3/6
f 479/3/6 486/3/6 489/3/6
f 486/7/6 487/7/6 490/7/6
f 489/3/6 486/3/6 490/3/6
f 487/11/6 488/11/6 491/11/6
f 490/7/6 487/7/6 491/7/6
f 491/11/6 488/11/6 492/11/6
f 493/8/6 494/8/6 502/8/6
f 494/9/6 495/9/6 503/9/6
f 495/10/6 496/10/6 503/10/6
f 496/2/6 497/2/6 504/2/6
f 503/10/6 496/10/6 504/10/6
f 497/5/6 498/5/6 505/5/6
f 504/2/6 497/2/6 505/2/6
f 501/12/6 502/12/6 506/12/6
f 502/8/6 494/8/6 507/8/6
f 506/12/6 502/12/6 507/12/6
f 494/9/6 503/9/6 508/9/6
f 505/5/6 498/5/6 510/5/6
f 507/8/6 494/8/6 511/8/6
f 494/9/6 508/9/6 512/9/6
f 511/8/6 494/8/6 512/8/6
f 508/10/6 509/10/6 513/10/6
f 512/9/6 508/9/6 513/9/6
f 509/2/6 510/2/6 514/2/6
f 513/10/6 509/10/6 514/10/6
f 510/5/6 498/5/6 515/5/6
f 514/2/6 510/2/6 515/2/6
f 498/6/6 499/6/6 516/6/6
f 515/5/6 498/5/6 516/5/6
f 499/4/6 500/4/6 517/4/6
f 516/6/6 499/6/6 517/6/6
f 517/4/6 500/4/6 518/4/6
f 519/6/6 520/6/6 524/6/6
f 520/4/6 521/4/6 525/4/6
f 524/6/6 520/6/6 525/6/6
f 521/3/6 522/3/6 526/3/6
f 525/4/6 521/4/6 526/4/6
f 522/7/6 523/7/6 527/7/6
f 526/3/6 522/3/6 527/3/6
f 527/7/6 523/7/6 528/7/6
f 529/10/6 530/10/6 534/10/6
f 534/10/6 530/10/6 535/10/6
f 531/7/6 532/7/6 536/7/6
f 532/11/6 533/11/6 537/11/6
f 536/7/6 532/7/6 537/7/6
f 537/11/6 533/11/6 541/11/6
f 538/10/6 539/10/6 542/10/6
f 542/10/6 539/10/6 543/10/6
f 540/7/6 541/7/6 544/7/6
f 541/11/6 533/11/6 545/11/6
f 544/7/6 541/7/6 545/7/6
f 545/11/6 533/11/6 546/11/6
f 547/2/6 548/2/6 554/2/6
f 551/3/6 552/3/6 555/3/6
f 553/10/6 554/10/6 557/10/6
f 554/2/6 548/2/6 558/2/6
f 557/10/6 554/10/6 558/10/6
f 555/7/6 556/7/6 559/7/6
f 551/3/6 555/3/6 559/3/6
f 559/7/6 556/7/6 560/7/6
f 558/2/6 548/2/6 561/2/6
f 548/5/6 549/5/6 562/5/6
f 561/2/6 548/2/6 562/2/6
f 549/6/6 550/6/6 563/6/6
f 562/5/6 549/5/6 563/5/6
f 550/4/6 551/4/6 564/4/6
f 563/6/6 550/6/6 564/6/6
f 551/3/6 559/3/6 565/3/6
f 564/4/6 551/4/6 565/4/6
f 565/3/6 559/3/6 566/3/6
