# MagicaVoxel @ Ephtracy

# group
o 

# material
mtllib shift-dino-0.mtl
usemtl palette

# normals
vn -1 0 0
vn 1 0 0
vn 0 0 1
vn 0 0 -1
vn 0 -1 0
vn 0 1 0

# texcoords
vt 0.00195312 0.5
vt 0.0253906 0.5
vt 0.0371094 0.5
vt 0.0605469 0.5
vt 0.0761719 0.5
vt 0.0800781 0.5
vt 0.150391 0.5
vt 0.166016 0.5
vt 0.201172 0.5
vt 0.212891 0.5
vt 0.294922 0.5
vt 0.306641 0.5

# verts
v -0.9 1.4 -0.2
v -0.9 1.4 -0.3
v -0.9 1.5 -0.2
v -0.9 1.5 -0.3
v -0.8 1.4 0.4
v -0.8 1.4 -0.2
v -0.8 1.4 -0.3
v -0.8 1.4 -0.5
v -0.8 1.5 0.4
v -0.8 1.5 -0.2
v -0.8 1.5 -0.3
v -0.8 1.5 -0.5
v -0.7 1 -0.2
v -0.7 1 -0.3
v -0.7 1.3 0.4
v -0.7 1.3 -0.2
v -0.7 1.3 -0.3
v -0.7 1.3 -0.4
v -0.7 1.4 0.4
v -0.7 1.4 -0.4
v -0.7 1.5 0.4
v -0.7 1.5 -0.4
v -0.7 1.6 0.4
v -0.7 1.6 -0.4
v -0.3 1 0.2
v -0.3 1 0.1
v -0.3 1.3 0.2
v -0.3 1.3 0.1
v -0.1 1.6 0
v -0.1 1.6 -0.1
v -0.1 1.7 0
v -0.1 1.7 -0.1
v 0 1.7 0
v 0 1.7 -0.1
v 0 1.8 0.1
v 0 1.8 0
v 0 1.8 -0.1
v 0 1.8 -0.2
v 0 2.4 0.1
v 0 2.4 0
v 0 2.4 -0.1
v 0 2.4 -0.2
v 0 2.5 0
v 0 2.5 -0.1
v 0.1 2.4 0.1
v 0.1 2.4 0
v 0.1 2.4 -0.1
v 0.1 2.4 -0.2
v 0.1 2.5 0.1
v 0.1 2.5 0
v 0.1 2.5 -0.1
v 0.1 2.5 -0.2
v 0.3 1.3 -0.2
v 0.3 1.3 -0.3
v 0.3 1.4 0.2
v 0.3 1.4 0.1
v 0.3 1.5 0.2
v 0.3 1.5 0.1
v 0.3 1.5 -0.2
v 0.3 1.5 -0.3
v -0.6 1.1 -0.2
v -0.6 1.1 -0.3
v -0.6 1.3 -0.2
v -0.6 1.3 -0.3
v -0.5 1 -0.2
v -0.5 1 -0.3
v -0.5 1.1 -0.2
v -0.5 1.1 -0.3
v -0.2 1.1 0.2
v -0.2 1.1 0.1
v -0.2 1.3 0.2
v -0.2 1.3 0.1
v -0.1 1 0.2
v -0.1 1 0.1
v -0.1 1.1 0.2
v -0.1 1.1 0.1
v 0 1.3 0.4
v 0 1.3 0.3
v 0 1.6 0.4
v 0 1.6 0.3
v 0.1 1.3 0.3
v 0.1 1.3 -0.4
v 0.1 1.4 -0.4
v 0.1 1.4 -0.5
v 0.1 1.5 0.2
v 0.1 1.5 0.1
v 0.1 1.5 0
v 0.1 1.5 -0.1
v 0.1 1.5 -0.2
v 0.1 1.5 -0.3
v 0.1 1.5 -0.4
v 0.1 1.5 -0.5
v 0.1 1.6 0.3
v 0.1 1.6 0.2
v 0.1 1.6 0.1
v 0.1 1.6 0
v 0.1 1.6 -0.1
v 0.1 1.6 -0.2
v 0.1 1.6 -0.3
v 0.1 1.6 -0.4
v 0.2 1.5 0
v 0.2 1.5 -0.1
v 0.2 1.6 0
v 0.2 1.6 -0.1
v 0.2 1.8 0
v 0.2 1.8 -0.1
v 0.3 1.9 0.1
v 0.3 1.9 -0.2
v 0.3 2 0.1
v 0.3 2 -0.2
v 0.4 1.3 -0.2
v 0.4 1.3 -0.3
v 0.4 1.4 0.2
v 0.4 1.4 0.1
v 0.4 1.6 0.2
v 0.4 1.6 0.1
v 0.4 1.6 -0.2
v 0.4 1.6 -0.3
v 0.6 2.4 0.1
v 0.6 2.4 0
v 0.6 2.4 -0.1
v 0.6 2.4 -0.2
v 0.6 2.5 0.1
v 0.6 2.5 0
v 0.6 2.5 -0.1
v 0.6 2.5 -0.2
v 0.7 1.8 0.1
v 0.7 1.8 -0.2
v 0.7 1.9 0.1
v 0.7 1.9 -0.2
v 0.7 2.4 0
v 0.7 2.4 -0.1
v 0.7 2.5 0
v 0.7 2.5 -0.1
v 0.8 2 0.1
v 0.8 2 -0.2
v 0.8 2.4 0.1
v 0.8 2.4 -0.2
v -0.8 1.4 0.4
v -0.8 1.5 0.4
v -0.7 1.3 0.4
v -0.7 1.4 0.4
v -0.7 1.5 0.4
v -0.7 1.6 0.4
v -0.6 1.3 0.4
v -0.6 1.6 0.4
v -0.5 1.3 0.4
v -0.5 1.6 0.4
v -0.4 1.3 0.4
v -0.4 1.6 0.4
v -0.3 1.3 0.4
v -0.3 1.6 0.4
v -0.2 1.3 0.4
v -0.2 1.6 0.4
v -0.1 1.3 0.4
v -0.1 1.6 0.4
v 0 1.3 0.4
v 0 1.6 0.4
v 0 1.3 0.3
v 0 1.6 0.3
v 0.1 1.3 0.3
v 0.1 1.6 0.3
v -0.3 1 0.2
v -0.3 1.3 0.2
v -0.2 1.1 0.2
v -0.2 1.3 0.2
v -0.1 1 0.2
v -0.1 1.1 0.2
v 0.1 1.5 0.2
v 0.1 1.6 0.2
v 0.2 1.5 0.2
v 0.2 1.6 0.2
v 0.3 1.4 0.2
v 0.3 1.5 0.2
v 0.4 1.4 0.2
v 0.4 1.6 0.2
v 0 1.8 0.1
v 0 2.4 0.1
v 0.1 1.8 0.1
v 0.1 2.4 0.1
v 0.1 2.5 0.1
v 0.2 1.8 0.1
v 0.2 2.5 0.1
v 0.3 1.8 0.1
v 0.3 1.9 0.1
v 0.3 2 0.1
v 0.3 2.5 0.1
v 0.4 1.8 0.1
v 0.4 1.9 0.1
v 0.4 2 0.1
v 0.4 2.2 0.1
v 0.4 2.3 0.1
v 0.4 2.5 0.1
v 0.5 1.8 0.1
v 0.5 1.9 0.1
v 0.5 2 0.1
v 0.5 2.2 0.1
v 0.5 2.3 0.1
v 0.5 2.5 0.1
v 0.6 1.8 0.1
v 0.6 1.9 0.1
v 0.6 2 0.1
v 0.6 2.4 0.1
v 0.6 2.5 0.1
v 0.7 1.8 0.1
v 0.7 1.9 0.1
v 0.7 2 0.1
v 0.7 2.4 0.1
v 0.8 2 0.1
v 0.8 2.4 0.1
v -0.1 1.6 0
v -0.1 1.7 0
v 0 1.6 0
v 0 1.7 0
v 0 1.8 0
v 0 2.4 0
v 0 2.5 0
v 0.1 1.5 0
v 0.1 1.6 0
v 0.1 1.8 0
v 0.1 2.4 0
v 0.1 2.5 0
v 0.2 1.5 0
v 0.2 1.6 0
v 0.2 1.8 0
v 0.6 2.4 0
v 0.6 2.5 0
v 0.7 2.4 0
v 0.7 2.5 0
v -0.9 1.4 -0.2
v -0.9 1.5 -0.2
v -0.8 1.4 -0.2
v -0.8 1.5 -0.2
v -0.7 1 -0.2
v -0.7 1.3 -0.2
v -0.6 1.1 -0.2
v -0.6 1.3 -0.2
v -0.5 1 -0.2
v -0.5 1.1 -0.2
v 0.1 1.5 -0.2
v 0.1 1.6 -0.2
v 0.2 1.5 -0.2
v 0.2 1.6 -0.2
v 0.3 1.3 -0.2
v 0.3 1.5 -0.2
v 0.4 1.3 -0.2
v 0.4 1.6 -0.2
v -0.3 1 0.1
v -0.3 1.3 0.1
v -0.2 1.1 0.1
v -0.2 1.3 0.1
v -0.1 1 0.1
v -0.1 1.1 0.1
v 0.1 1.5 0.1
v 0.1 1.6 0.1
v 0.2 1.5 0.1
v 0.2 1.6 0.1
v 0.3 1.4 0.1
v 0.3 1.5 0.1
v 0.4 1.4 0.1
v 0.4 1.6 0.1
v -0.1 1.6 -0.1
v -0.1 1.7 -0.1
v 0 1.6 -0.1
v 0 1.7 -0.1
v 0 1.8 -0.1
v 0 2.4 -0.1
v 0 2.5 -0.1
v 0.1 1.5 -0.1
v 0.1 1.6 -0.1
v 0.1 1.8 -0.1
v 0.1 2.4 -0.1
v 0.1 2.5 -0.1
v 0.2 1.5 -0.1
v 0.2 1.6 -0.1
v 0.2 1.8 -0.1
v 0.6 2.4 -0.1
v 0.6 2.5 -0.1
v 0.7 2.4 -0.1
v 0.7 2.5 -0.1
v 0 1.8 -0.2
v 0 2.4 -0.2
v 0.1 1.8 -0.2
v 0.1 2.4 -0.2
v 0.1 2.5 -0.2
v 0.2 1.8 -0.2
v 0.2 2.5 -0.2
v 0.3 1.8 -0.2
v 0.3 1.9 -0.2
v 0.3 2 -0.2
v 0.3 2.5 -0.2
v 0.4 1.8 -0.2
v 0.4 1.9 -0.2
v 0.4 2 -0.2
v 0.4 2.2 -0.2
v 0.4 2.3 -0.2
v 0.4 2.5 -0.2
v 0.5 1.8 -0.2
v 0.5 1.9 -0.2
v 0.5 2 -0.2
v 0.5 2.2 -0.2
v 0.5 2.3 -0.2
v 0.5 2.5 -0.2
v 0.6 1.8 -0.2
v 0.6 1.9 -0.2
v 0.6 2 -0.2
v 0.6 2.4 -0.2
v 0.6 2.5 -0.2
v 0.7 1.8 -0.2
v 0.7 1.9 -0.2
v 0.7 2 -0.2
v 0.7 2.4 -0.2
v 0.8 2 -0.2
v 0.8 2.4 -0.2
v -0.9 1.4 -0.3
v -0.9 1.5 -0.3
v -0.8 1.4 -0.3
v -0.8 1.5 -0.3
v -0.7 1 -0.3
v -0.7 1.3 -0.3
v -0.6 1.1 -0.3
v -0.6 1.3 -0.3
v -0.5 1 -0.3
v -0.5 1.1 -0.3
v 0.1 1.5 -0.3
v 0.1 1.6 -0.3
v 0.2 1.5 -0.3
v 0.2 1.6 -0.3
v 0.3 1.3 -0.3
v 0.3 1.5 -0.3
v 0.4 1.3 -0.3
v 0.4 1.6 -0.3
v -0.7 1.3 -0.4
v -0.7 1.4 -0.4
v -0.7 1.5 -0.4
v -0.7 1.6 -0.4
v -0.6 1.3 -0.4
v -0.6 1.4 -0.4
v -0.6 1.5 -0.4
v -0.6 1.6 -0.4
v -0.5 1.3 -0.4
v -0.5 1.4 -0.4
v -0.5 1.5 -0.4
v -0.5 1.6 -0.4
v -0.4 1.3 -0.4
v -0.4 1.4 -0.4
v -0.4 1.5 -0.4
v -0.4 1.6 -0.4
v -0.3 1.3 -0.4
v -0.3 1.4 -0.4
v -0.3 1.5 -0.4
v -0.3 1.6 -0.4
v -0.2 1.3 -0.4
v -0.2 1.4 -0.4
v -0.2 1.5 -0.4
v -0.2 1.6 -0.4
v -0.1 1.3 -0.4
v -0.1 1.4 -0.4
v -0.1 1.5 -0.4
v -0.1 1.6 -0.4
v 0 1.3 -0.4
v 0 1.4 -0.4
v 0 1.5 -0.4
v 0 1.6 -0.4
v 0.1 1.3 -0.4
v 0.1 1.4 -0.4
v 0.1 1.5 -0.4
v 0.1 1.6 -0.4
v -0.8 1.4 -0.5
v -0.8 1.5 -0.5
v -0.7 1.4 -0.5
v -0.7 1.5 -0.5
v -0.6 1.4 -0.5
v -0.6 1.5 -0.5
v -0.5 1.4 -0.5
v -0.5 1.5 -0.5
v -0.4 1.4 -0.5
v -0.4 1.5 -0.5
v -0.3 1.4 -0.5
v -0.3 1.5 -0.5
v -0.2 1.4 -0.5
v -0.2 1.5 -0.5
v -0.1 1.4 -0.5
v -0.1 1.5 -0.5
v 0 1.4 -0.5
v 0 1.5 -0.5
v 0.1 1.4 -0.5
v 0.1 1.5 -0.5
v -0.3 1 0.2
v -0.1 1 0.2
v -0.3 1 0.1
v -0.1 1 0.1
v -0.7 1 -0.2
v -0.5 1 -0.2
v -0.7 1 -0.3
v -0.5 1 -0.3
v -0.7 1.3 0.4
v -0.6 1.3 0.4
v -0.5 1.3 0.4
v -0.4 1.3 0.4
v -0.3 1.3 0.4
v -0.2 1.3 0.4
v -0.1 1.3 0.4
v 0 1.3 0.4
v 0 1.3 0.3
v 0.1 1.3 0.3
v -0.3 1.3 0.2
v -0.2 1.3 0.2
v -0.3 1.3 0.1
v -0.2 1.3 0.1
v -0.7 1.3 -0.2
v -0.6 1.3 -0.2
v 0.3 1.3 -0.2
v 0.4 1.3 -0.2
v -0.7 1.3 -0.3
v -0.6 1.3 -0.3
v 0.3 1.3 -0.3
v 0.4 1.3 -0.3
v -0.7 1.3 -0.4
v -0.6 1.3 -0.4
v -0.5 1.3 -0.4
v -0.4 1.3 -0.4
v -0.3 1.3 -0.4
v -0.2 1.3 -0.4
v -0.1 1.3 -0.4
v 0 1.3 -0.4
v 0.1 1.3 -0.4
v -0.8 1.4 0.4
v -0.7 1.4 0.4
v 0.3 1.4 0.2
v 0.4 1.4 0.2
v 0.3 1.4 0.1
v 0.4 1.4 0.1
v -0.9 1.4 -0.2
v -0.8 1.4 -0.2
v -0.9 1.4 -0.3
v -0.8 1.4 -0.3
v -0.7 1.4 -0.4
v -0.6 1.4 -0.4
v -0.5 1.4 -0.4
v -0.4 1.4 -0.4
v -0.3 1.4 -0.4
v -0.2 1.4 -0.4
v -0.1 1.4 -0.4
v 0 1.4 -0.4
v 0.1 1.4 -0.4
v -0.8 1.4 -0.5
v -0.7 1.4 -0.5
v -0.6 1.4 -0.5
v -0.5 1.4 -0.5
v -0.4 1.4 -0.5
v -0.3 1.4 -0.5
v -0.2 1.4 -0.5
v -0.1 1.4 -0.5
v 0 1.4 -0.5
v 0.1 1.4 -0.5
v 0.1 1.5 0.2
v 0.2 1.5 0.2
v 0.3 1.5 0.2
v 0.1 1.5 0.1
v 0.2 1.5 0.1
v 0.3 1.5 0.1
v 0.1 1.5 0
v 0.2 1.5 0
v 0.1 1.5 -0.1
v 0.2 1.5 -0.1
v 0.1 1.5 -0.2
v 0.2 1.5 -0.2
v 0.3 1.5 -0.2
v 0.1 1.5 -0.3
v 0.2 1.5 -0.3
v 0.3 1.5 -0.3
v 0 1.8 0.1
v 0.1 1.8 0.1
v 0.2 1.8 0.1
v 0.3 1.8 0.1
v 0.4 1.8 0.1
v 0.5 1.8 0.1
v 0.6 1.8 0.1
v 0.7 1.8 0.1
v 0 1.8 0
v 0.1 1.8 0
v 0.2 1.8 0
v 0 1.8 -0.1
v 0.1 1.8 -0.1
v 0.2 1.8 -0.1
v 0 1.8 -0.2
v 0.1 1.8 -0.2
v 0.2 1.8 -0.2
v 0.3 1.8 -0.2
v 0.4 1.8 -0.2
v 0.5 1.8 -0.2
v 0.6 1.8 -0.2
v 0.7 1.8 -0.2
v 0.3 2 0.1
v 0.4 2 0.1
v 0.5 2 0.1
v 0.6 2 0.1
v 0.7 2 0.1
v 0.8 2 0.1
v 0.3 2 -0.2
v 0.4 2 -0.2
v 0.5 2 -0.2
v 0.6 2 -0.2
v 0.7 2 -0.2
v 0.8 2 -0.2
v -0.2 1.1 0.2
v -0.1 1.1 0.2
v -0.2 1.1 0.1
v -0.1 1.1 0.1
v -0.6 1.1 -0.2
v -0.5 1.1 -0.2
v -0.6 1.1 -0.3
v -0.5 1.1 -0.3
v -0.8 1.5 0.4
v -0.7 1.5 0.4
v -0.9 1.5 -0.2
v -0.8 1.5 -0.2
v -0.9 1.5 -0.3
v -0.8 1.5 -0.3
v -0.7 1.5 -0.4
v -0.6 1.5 -0.4
v -0.5 1.5 -0.4
v -0.4 1.5 -0.4
v -0.3 1.5 -0.4
v -0.2 1.5 -0.4
v -0.1 1.5 -0.4
v 0 1.5 -0.4
v 0.1 1.5 -0.4
v -0.8 1.5 -0.5
v -0.7 1.5 -0.5
v -0.6 1.5 -0.5
v -0.5 1.5 -0.5
v -0.4 1.5 -0.5
v -0.3 1.5 -0.5
v -0.2 1.5 -0.5
v -0.1 1.5 -0.5
v 0 1.5 -0.5
v 0.1 1.5 -0.5
v -0.7 1.6 0.4
v -0.6 1.6 0.4
v -0.5 1.6 0.4
v -0.4 1.6 0.4
v -0.3 1.6 0.4
v -0.2 1.6 0.4
v -0.1 1.6 0.4
v 0 1.6 0.4
v 0 1.6 0.3
v 0.1 1.6 0.3
v 0.1 1.6 0.2
v 0.2 1.6 0.2
v 0.4 1.6 0.2
v 0.1 1.6 0.1
v 0.2 1.6 0.1
v 0.4 1.6 0.1
v -0.1 1.6 0
v 0 1.6 0
v 0.1 1.6 0
v -0.1 1.6 -0.1
v 0 1.6 -0.1
v 0.1 1.6 -0.1
v 0.1 1.6 -0.2
v 0.2 1.6 -0.2
v 0.4 1.6 -0.2
v 0.1 1.6 -0.3
v 0.2 1.6 -0.3
v 0.4 1.6 -0.3
v -0.7 1.6 -0.4
v -0.6 1.6 -0.4
v -0.5 1.6 -0.4
v -0.4 1.6 -0.4
v -0.3 1.6 -0.4
v -0.2 1.6 -0.4
v -0.1 1.6 -0.4
v 0 1.6 -0.4
v 0.1 1.6 -0.4
v -0.1 1.7 0
v 0 1.7 0
v -0.1 1.7 -0.1
v 0 1.7 -0.1
v 0.3 1.9 0.1
v 0.4 1.9 0.1
v 0.5 1.9 0.1
v 0.6 1.9 0.1
v 0.7 1.9 0.1
v 0.3 1.9 -0.2
v 0.4 1.9 -0.2
v 0.5 1.9 -0.2
v 0.6 1.9 -0.2
v 0.7 1.9 -0.2
v 0 2.4 0.1
v 0.1 2.4 0.1
v 0.6 2.4 0.1
v 0.7 2.4 0.1
v 0.8 2.4 0.1
v 0 2.4 0
v 0.1 2.4 0
v 0.6 2.4 0
v 0.7 2.4 0
v 0 2.4 -0.1
v 0.1 2.4 -0.1
v 0.6 2.4 -0.1
v 0.7 2.4 -0.1
v 0 2.4 -0.2
v 0.1 2.4 -0.2
v 0.6 2.4 -0.2
v 0.7 2.4 -0.2
v 0.8 2.4 -0.2
v 0.1 2.5 0.1
v 0.2 2.5 0.1
v 0.3 2.5 0.1
v 0.4 2.5 0.1
v 0.5 2.5 0.1
v 0.6 2.5 0.1
v 0 2.5 0
v 0.1 2.5 0
v 0.6 2.5 0
v 0.7 2.5 0
v 0 2.5 -0.1
v 0.1 2.5 -0.1
v 0.6 2.5 -0.1
v 0.7 2.5 -0.1
v 0.1 2.5 -0.2
v 0.2 2.5 -0.2
v 0.3 2.5 -0.2
v 0.4 2.5 -0.2
v 0.5 2.5 -0.2
v 0.6 2.5 -0.2

# faces
f 3/12/1 2/12/1 1/12/1
f 4/12/1 2/12/1 3/12/1
f 9/12/1 6/12/1 5/12/1
f 10/12/1 6/12/1 9/12/1
f 11/12/1 8/12/1 7/12/1
f 12/12/1 8/12/1 11/12/1
f 16/8/1 14/8/1 13/8/1
f 17/8/1 14/8/1 16/8/1
f 19/8/1 16/8/1 15/8/1
f 19/8/1 18/8/1 17/8/1
f 19/8/1 17/8/1 16/8/1
f 20/8/1 18/8/1 19/8/1
f 23/8/1 22/8/1 21/8/1
f 24/8/1 22/8/1 23/8/1
f 27/6/1 26/6/1 25/6/1
f 28/6/1 26/6/1 27/6/1
f 31/4/1 30/4/1 29/4/1
f 32/4/1 30/4/1 31/4/1
f 36/10/1 34/10/1 33/10/1
f 37/10/1 34/10/1 36/10/1
f 39/10/1 36/10/1 35/10/1
f 39/10/1 38/10/1 37/10/1
f 39/10/1 37/10/1 36/10/1
f 40/10/1 38/10/1 39/10/1
f 41/10/1 38/10/1 40/10/1
f 42/10/1 38/10/1 41/10/1
f 43/10/1 41/10/1 40/10/1
f 44/10/1 41/10/1 43/10/1
f 49/2/1 46/2/1 45/2/1
f 50/2/1 46/2/1 49/2/1
f 51/2/1 48/2/1 47/2/1
f 52/2/1 48/2/1 51/2/1
f 57/11/1 56/11/1 55/11/1
f 58/11/1 56/11/1 57/11/1
f 59/11/1 54/11/1 53/11/1
f 60/11/1 54/11/1 59/11/1
f 61/8/2 62/8/2 63/8/2
f 63/8/2 62/8/2 64/8/2
f 65/8/2 66/8/2 67/8/2
f 67/8/2 66/8/2 68/8/2
f 69/6/2 70/6/2 71/6/2
f 71/6/2 70/6/2 72/6/2
f 73/6/2 74/6/2 75/6/2
f 75/6/2 74/6/2 76/6/2
f 77/4/2 78/4/2 79/4/2
f 79/4/2 78/4/2 80/4/2
f 81/3/2 82/3/2 83/3/2
f 81/3/2 83/3/2 85/3/2
f 83/3/2 84/3/2 85/3/2
f 85/3/2 84/3/2 86/3/2
f 86/3/2 84/3/2 87/3/2
f 87/3/2 84/3/2 88/3/2
f 88/3/2 84/3/2 89/3/2
f 89/3/2 84/3/2 90/3/2
f 90/3/2 84/3/2 91/3/2
f 91/3/2 84/3/2 92/3/2
f 81/3/2 85/3/2 93/3/2
f 93/3/2 85/3/2 94/3/2
f 86/3/2 87/3/2 95/3/2
f 95/3/2 87/3/2 96/3/2
f 88/3/2 89/3/2 97/3/2
f 97/3/2 89/3/2 98/3/2
f 90/3/2 91/3/2 99/3/2
f 99/3/2 91/3/2 100/3/2
f 101/3/2 102/3/2 103/3/2
f 103/3/2 102/3/2 104/3/2
f 103/2/2 104/2/2 105/2/2
f 105/2/2 104/2/2 106/2/2
f 107/5/2 108/5/2 109/5/2
f 109/5/2 108/5/2 110/5/2
f 113/11/2 114/11/2 115/11/2
f 115/11/2 114/11/2 116/11/2
f 111/11/2 112/11/2 117/11/2
f 117/11/2 112/11/2 118/11/2
f 119/3/2 120/3/2 123/3/2
f 123/3/2 120/3/2 124/3/2
f 121/3/2 122/3/2 125/3/2
f 125/3/2 122/3/2 126/3/2
f 127/7/2 128/7/2 129/7/2
f 129/7/2 128/7/2 130/7/2
f 131/7/2 132/7/2 133/7/2
f 133/7/2 132/7/2 134/7/2
f 135/11/2 136/11/2 137/11/2
f 137/11/2 136/11/2 138/11/2
f 142/12/3 140/12/3 139/12/3
f 143/12/3 140/12/3 142/12/3
f 145/8/3 142/8/3 141/8/3
f 145/8/3 144/8/3 143/8/3
f 145/8/3 143/8/3 142/8/3
f 146/8/3 144/8/3 145/8/3
f 147/9/3 146/9/3 145/9/3
f 148/9/3 146/9/3 147/9/3
f 149/10/3 148/10/3 147/10/3
f 150/10/3 148/10/3 149/10/3
f 151/2/3 150/2/3 149/2/3
f 152/2/3 150/2/3 151/2/3
f 153/5/3 152/5/3 151/5/3
f 154/5/3 152/5/3 153/5/3
f 155/6/3 154/6/3 153/6/3
f 156/6/3 154/6/3 155/6/3
f 157/4/3 156/4/3 155/4/3
f 158/4/3 156/4/3 157/4/3
f 161/3/3 160/3/3 159/3/3
f 162/3/3 160/3/3 161/3/3
f 165/6/3 164/6/3 163/6/3
f 166/6/3 164/6/3 165/6/3
f 167/6/3 165/6/3 163/6/3
f 168/6/3 165/6/3 167/6/3
f 171/7/3 170/7/3 169/7/3
f 172/7/3 170/7/3 171/7/3
f 174/11/3 172/11/3 171/11/3
f 175/11/3 174/11/3 173/11/3
f 176/11/3 172/11/3 174/11/3
f 176/11/3 174/11/3 175/11/3
f 179/10/3 178/10/3 177/10/3
f 180/10/3 178/10/3 179/10/3
f 182/2/3 180/2/3 179/2/3
f 182/2/3 181/2/3 180/2/3
f 183/2/3 181/2/3 182/2/3
f 184/5/3 183/5/3 182/5/3
f 185/5/3 183/5/3 184/5/3
f 186/5/3 183/5/3 185/5/3
f 187/5/3 183/5/3 186/5/3
f 188/6/3 185/6/3 184/6/3
f 189/6/3 185/6/3 188/6/3
f 190/6/3 187/6/3 186/6/3
f 191/6/3 187/6/3 190/6/3
f 192/6/3 187/6/3 191/6/3
f 193/6/3 187/6/3 192/6/3
f 194/4/3 189/4/3 188/4/3
f 195/4/3 189/4/3 194/4/3
f 196/4/3 191/4/3 190/4/3
f 197/1/3 192/1/3 191/1/3
f 197/4/3 191/4/3 196/4/3
f 198/4/3 193/4/3 192/4/3
f 198/1/3 192/1/3 197/1/3
f 199/4/3 193/4/3 198/4/3
f 200/3/3 195/3/3 194/3/3
f 201/3/3 195/3/3 200/3/3
f 202/3/3 197/3/3 196/3/3
f 202/3/3 198/3/3 197/3/3
f 202/3/3 199/3/3 198/3/3
f 203/3/3 199/3/3 202/3/3
f 204/3/3 199/3/3 203/3/3
f 205/7/3 201/7/3 200/7/3
f 206/7/3 201/7/3 205/7/3
f 207/7/3 203/7/3 202/7/3
f 208/7/3 203/7/3 207/7/3
f 209/11/3 208/11/3 207/11/3
f 210/11/3 208/11/3 209/11/3
f 213/4/3 212/4/3 211/4/3
f 214/4/3 212/4/3 213/4/3
f 219/10/3 214/10/3 213/10/3
f 219/10/3 215/10/3 214/10/3
f 220/10/3 215/10/3 219/10/3
f 221/10/3 217/10/3 216/10/3
f 222/10/3 217/10/3 221/10/3
f 223/3/3 219/3/3 218/3/3
f 224/2/3 220/2/3 219/2/3
f 224/3/3 219/3/3 223/3/3
f 225/2/3 220/2/3 224/2/3
f 228/7/3 227/7/3 226/7/3
f 229/7/3 227/7/3 228/7/3
f 232/12/3 231/12/3 230/12/3
f 233/12/3 231/12/3 232/12/3
f 236/8/3 235/8/3 234/8/3
f 237/8/3 235/8/3 236/8/3
f 238/8/3 236/8/3 234/8/3
f 239/8/3 236/8/3 238/8/3
f 242/7/3 241/7/3 240/7/3
f 243/7/3 241/7/3 242/7/3
f 245/11/3 243/11/3 242/11/3
f 246/11/3 245/11/3 244/11/3
f 247/11/3 243/11/3 245/11/3
f 247/11/3 245/11/3 246/11/3
f 248/6/4 249/6/4 250/6/4
f 250/6/4 249/6/4 251/6/4
f 248/6/4 250/6/4 252/6/4
f 252/6/4 250/6/4 253/6/4
f 254/7/4 255/7/4 256/7/4
f 256/7/4 255/7/4 257/7/4
f 256/11/4 257/11/4 259/11/4
f 258/11/4 259/11/4 260/11/4
f 259/11/4 257/11/4 261/11/4
f 260/11/4 259/11/4 261/11/4
f 262/4/4 263/4/4 264/4/4
f 264/4/4 263/4/4 265/4/4
f 264/10/4 265/10/4 270/10/4
f 265/10/4 266/10/4 270/10/4
f 270/10/4 266/10/4 271/10/4
f 267/10/4 268/10/4 272/10/4
f 272/10/4 268/10/4 273/10/4
f 269/3/4 270/3/4 274/3/4
f 270/2/4 271/2/4 275/2/4
f 274/3/4 270/3/4 275/3/4
f 275/2/4 271/2/4 276/2/4
f 277/7/4 278/7/4 279/7/4
f 279/7/4 278/7/4 280/7/4
f 281/10/4 282/10/4 283/10/4
f 283/10/4 282/10/4 284/10/4
f 283/2/4 284/2/4 286/2/4
f 284/2/4 285/2/4 286/2/4
f 286/2/4 285/2/4 287/2/4
f 286/5/4 287/5/4 288/5/4
f 288/5/4 287/5/4 289/5/4
f 289/5/4 287/5/4 290/5/4
f 290/5/4 287/5/4 291/5/4
f 288/6/4 289/6/4 292/6/4
f 292/6/4 289/6/4 293/6/4
f 290/6/4 291/6/4 294/6/4
f 294/6/4 291/6/4 295/6/4
f 295/6/4 291/6/4 296/6/4
f 296/6/4 291/6/4 297/6/4
f 292/4/4 293/4/4 298/4/4
f 298/4/4 293/4/4 299/4/4
f 294/4/4 295/4/4 300/4/4
f 295/1/4 296/1/4 301/1/4
f 300/4/4 295/4/4 301/4/4
f 296/4/4 297/4/4 302/4/4
f 301/1/4 296/1/4 302/1/4
f 302/4/4 297/4/4 303/4/4
f 298/3/4 299/3/4 304/3/4
f 304/3/4 299/3/4 305/3/4
f 300/3/4 301/3/4 306/3/4
f 301/3/4 302/3/4 306/3/4
f 302/3/4 303/3/4 306/3/4
f 306/3/4 303/3/4 307/3/4
f 307/3/4 303/3/4 308/3/4
f 304/7/4 305/7/4 309/7/4
f 309/7/4 305/7/4 310/7/4
f 306/7/4 307/7/4 311/7/4
f 311/7/4 307/7/4 312/7/4
f 311/11/4 312/11/4 313/11/4
f 313/11/4 312/11/4 314/11/4
f 315/12/4 316/12/4 317/12/4
f 317/12/4 316/12/4 318/12/4
f 319/8/4 320/8/4 321/8/4
f 321/8/4 320/8/4 322/8/4
f 319/8/4 321/8/4 323/8/4
f 323/8/4 321/8/4 324/8/4
f 325/7/4 326/7/4 327/7/4
f 327/7/4 326/7/4 328/7/4
f 327/11/4 328/11/4 330/11/4
f 329/11/4 330/11/4 331/11/4
f 330/11/4 328/11/4 332/11/4
f 331/11/4 330/11/4 332/11/4
f 333/8/4 334/8/4 337/8/4
f 337/8/4 334/8/4 338/8/4
f 335/8/4 336/8/4 339/8/4
f 339/8/4 336/8/4 340/8/4
f 337/9/4 338/9/4 341/9/4
f 341/9/4 338/9/4 342/9/4
f 339/9/4 340/9/4 343/9/4
f 343/9/4 340/9/4 344/9/4
f 341/10/4 342/10/4 345/10/4
f 345/10/4 342/10/4 346/10/4
f 343/10/4 344/10/4 347/10/4
f 347/10/4 344/10/4 348/10/4
f 345/2/4 346/2/4 349/2/4
f 349/2/4 346/2/4 350/2/4
f 347/2/4 348/2/4 351/2/4
f 351/2/4 348/2/4 352/2/4
f 349/5/4 350/5/4 353/5/4
f 353/5/4 350/5/4 354/5/4
f 351/5/4 352/5/4 355/5/4
f 355/5/4 352/5/4 356/5/4
f 353/6/4 354/6/4 357/6/4
f 357/6/4 354/6/4 358/6/4
f 355/6/4 356/6/4 359/6/4
f 359/6/4 356/6/4 360/6/4
f 357/4/4 358/4/4 361/4/4
f 361/4/4 358/4/4 362/4/4
f 359/4/4 360/4/4 363/4/4
f 363/4/4 360/4/4 364/4/4
f 361/3/4 362/3/4 365/3/4
f 365/3/4 362/3/4 366/3/4
f 363/3/4 364/3/4 367/3/4
f 367/3/4 364/3/4 368/3/4
f 369/12/4 370/12/4 371/12/4
f 371/12/4 370/12/4 372/12/4
f 371/8/4 372/8/4 373/8/4
f 373/8/4 372/8/4 374/8/4
f 373/9/4 374/9/4 375/9/4
f 375/9/4 374/9/4 376/9/4
f 375/10/4 376/10/4 377/10/4
f 377/10/4 376/10/4 378/10/4
f 377/2/4 378/2/4 379/2/4
f 379/2/4 378/2/4 380/2/4
f 379/5/4 380/5/4 381/5/4
f 381/5/4 380/5/4 382/5/4
f 381/6/4 382/6/4 383/6/4
f 383/6/4 382/6/4 384/6/4
f 383/4/4 384/4/4 385/4/4
f 385/4/4 384/4/4 386/4/4
f 385/3/4 386/3/4 387/3/4
f 387/3/4 386/3/4 388/3/4
f 391/6/5 390/6/5 389/6/5
f 392/6/5 390/6/5 391/6/5
f 395/8/5 394/8/5 393/8/5
f 396/8/5 394/8/5 395/8/5
f 405/4/5 404/4/5 403/4/5
f 407/2/5 401/2/5 400/2/5
f 407/5/5 402/5/5 401/5/5
f 408/6/5 403/6/5 402/6/5
f 408/5/5 402/5/5 407/5/5
f 409/2/5 407/2/5 400/2/5
f 410/6/5 403/6/5 408/6/5
f 411/8/5 398/8/5 397/8/5
f 412/9/5 399/9/5 398/9/5
f 412/8/5 398/8/5 411/8/5
f 416/9/5 399/9/5 412/9/5
f 417/11/5 414/11/5 413/11/5
f 418/11/5 414/11/5 417/11/5
f 419/8/5 416/8/5 415/8/5
f 420/9/5 399/9/5 416/9/5
f 420/8/5 416/8/5 419/8/5
f 421/10/5 400/10/5 399/10/5
f 421/9/5 399/9/5 420/9/5
f 422/2/5 409/2/5 400/2/5
f 422/10/5 400/10/5 421/10/5
f 423/5/5 410/5/5 409/5/5
f 423/2/5 409/2/5 422/2/5
f 424/6/5 403/6/5 410/6/5
f 424/5/5 410/5/5 423/5/5
f 425/4/5 405/4/5 403/4/5
f 425/6/5 403/6/5 424/6/5
f 426/3/5 406/3/5 405/3/5
f 426/4/5 405/4/5 425/4/5
f 427/3/5 406/3/5 426/3/5
f 432/11/5 431/11/5 430/11/5
f 433/11/5 431/11/5 432/11/5
f 435/12/5 429/12/5 428/12/5
f 436/12/5 435/12/5 434/12/5
f 437/12/5 429/12/5 435/12/5
f 437/12/5 435/12/5 436/12/5
f 438/12/5 429/12/5 437/12/5
f 447/12/5 438/12/5 437/12/5
f 448/8/5 439/8/5 438/8/5
f 448/12/5 438/12/5 447/12/5
f 449/9/5 440/9/5 439/9/5
f 449/8/5 439/8/5 448/8/5
f 450/10/5 441/10/5 440/10/5
f 450/9/5 440/9/5 449/9/5
f 451/2/5 442/2/5 441/2/5
f 451/10/5 441/10/5 450/10/5
f 452/5/5 443/5/5 442/5/5
f 452/2/5 442/2/5 451/2/5
f 453/6/5 444/6/5 443/6/5
f 453/5/5 443/5/5 452/5/5
f 454/4/5 445/4/5 444/4/5
f 454/6/5 444/6/5 453/6/5
f 455/3/5 446/3/5 445/3/5
f 455/4/5 445/4/5 454/4/5
f 456/3/5 446/3/5 455/3/5
f 460/7/5 458/7/5 457/7/5
f 461/11/5 459/11/5 458/11/5
f 461/7/5 458/7/5 460/7/5
f 462/11/5 459/11/5 461/11/5
f 465/3/5 464/3/5 463/3/5
f 466/3/5 464/3/5 465/3/5
f 470/7/5 468/7/5 467/7/5
f 471/11/5 469/11/5 468/11/5
f 471/7/5 468/7/5 470/7/5
f 472/11/5 469/11/5 471/11/5
f 481/10/5 474/10/5 473/10/5
f 482/2/5 475/2/5 474/2/5
f 482/10/5 474/10/5 481/10/5
f 483/5/5 476/5/5 475/5/5
f 483/2/5 475/2/5 482/2/5
f 486/5/5 476/5/5 483/5/5
f 487/10/5 485/10/5 484/10/5
f 488/2/5 486/2/5 485/2/5
f 488/10/5 485/10/5 487/10/5
f 489/5/5 476/5/5 486/5/5
f 489/2/5 486/2/5 488/2/5
f 490/6/5 477/6/5 476/6/5
f 490/5/5 476/5/5 489/5/5
f 491/4/5 478/4/5 477/4/5
f 491/6/5 477/6/5 490/6/5
f 492/3/5 479/3/5 478/3/5
f 492/4/5 478/4/5 491/4/5
f 493/7/5 480/7/5 479/7/5
f 493/3/5 479/3/5 492/3/5
f 494/7/5 480/7/5 493/7/5
f 501/6/5 496/6/5 495/6/5
f 502/4/5 497/4/5 496/4/5
f 502/6/5 496/6/5 501/6/5
f 503/3/5 498/3/5 497/3/5
f 503/4/5 497/4/5 502/4/5
f 504/7/5 499/7/5 498/7/5
f 504/3/5 498/3/5 503/3/5
f 505/11/5 500/11/5 499/11/5
f 505/7/5 499/7/5 504/7/5
f 506/11/5 500/11/5 505/11/5
f 507/6/6 508/6/6 509/6/6
f 509/6/6 508/6/6 510/6/6
f 511/8/6 512/8/6 513/8/6
f 513/8/6 512/8/6 514/8/6
f 515/12/6 516/12/6 518/12/6
f 517/12/6 518/12/6 519/12/6
f 518/12/6 516/12/6 520/12/6
f 519/12/6 518/12/6 520/12/6
f 520/12/6 516/12/6 521/12/6
f 520/12/6 521/12/6 530/12/6
f 521/8/6 522/8/6 531/8/6
f 530/12/6 521/12/6 531/12/6
f 522/9/6 523/9/6 532/9/6
f 531/8/6 522/8/6 532/8/6
f 523/10/6 524/10/6 533/10/6
f 532/9/6 523/9/6 533/9/6
f 524/2/6 525/2/6 534/2/6
f 533/10/6 524/10/6 534/10/6
f 525/5/6 526/5/6 535/5/6
f 534/2/6 525/2/6 535/2/6
f 526/6/6 527/6/6 536/6/6
f 535/5/6 526/5/6 536/5/6
f 527/4/6 528/4/6 537/4/6
f 536/6/6 527/6/6 537/6/6
f 528/3/6 529/3/6 538/3/6
f 537/4/6 528/4/6 538/4/6
f 538/3/6 529/3/6 539/3/6
f 546/4/6 547/4/6 548/4/6
f 548/3/6 549/3/6 550/3/6
f 548/3/6 550/3/6 553/3/6
f 550/7/6 551/7/6 553/7/6
f 551/11/6 552/11/6 554/11/6
f 553/7/6 551/7/6 554/7/6
f 554/11/6 552/11/6 555/11/6
f 545/6/6 546/6/6 556/6/6
f 546/4/6 548/4/6 556/4/6
f 548/3/6 553/3/6 557/3/6
f 556/4/6 548/4/6 557/4/6
f 557/3/6 553/3/6 558/3/6
f 545/6/6 556/6/6 559/6/6
f 560/3/6 561/3/6 562/3/6
f 560/3/6 562/3/6 565/3/6
f 562/7/6 563/7/6 565/7/6
f 563/11/6 564/11/6 566/11/6
f 565/7/6 563/7/6 566/7/6
f 566/11/6 564/11/6 567/11/6
f 540/8/6 541/8/6 568/8/6
f 541/9/6 542/9/6 569/9/6
f 568/8/6 541/8/6 569/8/6
f 542/10/6 543/10/6 570/10/6
f 569/9/6 542/9/6 570/9/6
f 543/2/6 544/2/6 571/2/6
f 570/10/6 543/10/6 571/10/6
f 544/5/6 545/5/6 572/5/6
f 571/2/6 544/2/6 572/2/6
f 545/6/6 559/6/6 573/6/6
f 572/5/6 545/5/6 573/5/6
f 559/4/6 560/4/6 574/4/6
f 573/6/6 559/6/6 574/6/6
f 560/3/6 565/3/6 575/3/6
f 574/4/6 560/4/6 575/4/6
f 575/3/6 565/3/6 576/3/6
f 577/4/6 578/4/6 579/4/6
f 579/4/6 578/4/6 580/4/6
f 581/6/6 582/6/6 586/6/6
f 582/4/6 583/4/6 587/4/6
f 586/6/6 582/6/6 587/6/6
f 583/3/6 584/3/6 588/3/6
f 587/4/6 583/4/6 588/4/6
f 584/7/6 585/7/6 589/7/6
f 588/3/6 584/3/6 589/3/6
f 589/7/6 585/7/6 590/7/6
f 591/10/6 592/10/6 596/10/6
f 596/10/6 592/10/6 597/10/6
f 593/7/6 594/7/6 598/7/6
f 594/11/6 595/11/6 599/11/6
f 598/7/6 594/7/6 599/7/6
f 599/11/6 595/11/6 603/11/6
f 600/10/6 601/10/6 604/10/6
f 604/10/6 601/10/6 605/10/6
f 602/7/6 603/7/6 606/7/6
f 603/11/6 595/11/6 607/11/6
f 606/7/6 603/7/6 607/7/6
f 607/11/6 595/11/6 608/11/6
f 609/2/6 610/2/6 616/2/6
f 613/3/6 614/3/6 617/3/6
f 615/10/6 616/10/6 619/10/6
f 616/2/6 610/2/6 620/2/6
f 619/10/6 616/10/6 620/10/6
f 617/7/6 618/7/6 621/7/6
f 613/3/6 617/3/6 621/3/6
f 621/7/6 618/7/6 622/7/6
f 620/2/6 610/2/6 623/2/6
f 610/5/6 611/5/6 624/5/6
f 623/2/6 610/2/6 624/2/6
f 611/6/6 612/6/6 625/6/6
f 624/5/6 611/5/6 625/5/6
f 612/4/6 613/4/6 626/4/6
f 625/6/6 612/6/6 626/6/6
f 613/3/6 621/3/6 627/3/6
f 626/4/6 613/4/6 627/4/6
f 627/3/6 621/3/6 628/3/6
